<?xml version="1.0" standalone="no"?>
<!DOCTYPE svg PUBLIC "-//W3C//DTD SVG 20010904//EN"
 "http://www.w3.org/TR/2001/REC-SVG-20010904/DTD/svg10.dtd">
<svg version="1.0" xmlns="http://www.w3.org/2000/svg"
 width="960.000000pt" height="960.000000pt" viewBox="0 0 960.000000 960.000000"
 preserveAspectRatio="xMidYMid meet">
<metadata>
Created by potrace 1.11, written by Peter Selinger 2001-2013
</metadata>
<g transform="translate(0.000000,960.000000) scale(0.100000,-0.100000)"
fill="#000000" stroke="none">
<path d="M0 7442 c0 -754 1 -799 18 -800 9 -1 46 -1 82 -1 36 0 72 0 80 0 8
-1 35 -1 60 0 25 0 63 0 85 0 22 -1 60 -1 85 -1 25 1 59 1 75 1 17 0 59 0 95
0 36 0 72 0 80 0 8 0 44 0 80 0 36 0 72 0 80 0 8 -1 35 -1 60 0 25 0 63 0 85
0 22 -1 60 -1 85 -1 25 1 59 1 75 1 17 0 59 0 95 0 36 0 72 0 80 0 8 0 44 0
80 0 36 0 72 0 80 0 8 -1 35 -1 60 0 25 0 63 0 85 0 22 -1 60 -1 85 -1 25 1
59 1 75 1 17 0 59 0 95 0 36 0 72 0 80 0 8 0 44 0 80 0 36 0 72 0 80 0 8 -1
35 -1 60 0 25 0 63 0 85 0 22 -1 60 -1 85 -1 25 1 59 1 75 1 17 0 73 0 125 0
52 1 101 0 108 0 24 -2 38 -2 129 0 50 0 96 -2 102 -5 5 -4 12 -2 16 4 4 6 11
8 16 4 6 -3 40 -5 77 -4 37 1 74 1 82 1 8 -1 35 -1 60 0 25 0 63 0 85 0 22 -1
60 -1 85 -1 25 1 59 1 75 1 17 0 73 0 125 0 52 1 101 0 108 0 62 -5 264 -3
317 3 11 1 34 -1 51 -5 18 -3 38 -3 44 1 7 4 25 4 41 0 15 -5 44 -5 63 0 20 4
38 4 41 0 3 -4 20 -5 37 -1 18 4 42 6 53 5 11 -1 36 -3 55 -3 19 -1 46 -2 60
-2 14 -1 32 -1 40 -1 25 1 174 2 193 1 9 0 60 0 112 1 l94 1 -182 179 c-100
98 -256 251 -347 340 -91 89 -325 318 -520 510 -195 191 -406 398 -469 459
l-113 111 -1584 0 -1584 0 0 -798z"/>
<path d="M6434 8227 c-6 -7 -107 -105 -225 -219 -118 -114 -275 -267 -350
-340 -76 -73 -228 -221 -338 -328 -111 -107 -262 -253 -335 -325 -74 -71 -188
-183 -255 -247 -67 -65 -121 -120 -121 -122 0 -5 2 -5 90 -5 30 0 62 0 70 0 8
0 40 0 70 0 30 0 71 0 90 0 19 -1 55 -1 80 0 25 0 59 0 75 0 17 0 73 0 125 0
52 1 101 0 108 0 62 -5 264 -3 317 3 11 1 34 -1 51 -5 18 -3 38 -3 44 1 7 4
25 4 41 0 15 -5 44 -5 63 0 20 4 38 4 41 0 3 -4 20 -5 37 -1 18 4 42 6 53 5
11 -1 36 -3 55 -3 19 -1 46 -2 60 -2 14 -1 32 -1 40 -1 30 1 165 2 180 1 8 0
56 1 107 2 50 0 96 -2 102 -5 5 -4 12 -2 16 4 4 6 11 8 16 4 6 -3 40 -5 77 -4
37 1 74 1 82 1 8 -1 35 -1 60 0 25 0 63 0 85 0 22 -1 60 -1 85 -1 25 1 59 1
75 1 17 0 73 0 125 0 52 1 101 0 108 0 24 -2 38 -2 129 0 50 0 96 -2 102 -5 5
-4 12 -2 16 4 4 6 11 8 16 4 6 -3 40 -5 77 -4 37 1 74 1 82 1 8 -1 35 -1 60 0
25 0 63 0 85 0 22 -1 60 -1 85 -1 25 1 59 1 75 1 17 0 59 0 95 0 36 0 72 0 80
0 8 0 44 0 80 0 36 0 72 0 80 0 8 -1 35 -1 60 0 25 0 63 0 85 0 22 -1 60 -1
85 -1 25 1 59 1 75 1 17 0 59 0 95 0 36 0 72 0 80 0 8 0 44 0 80 0 36 0 72 0
80 0 8 -1 35 0 60 0 25 1 68 0 95 -1 53 -2 57 -2 150 0 33 1 65 1 70 0 6 -1
27 -2 48 -1 l37 1 0 800 0 800 -1577 0 c-1223 -1 -1580 -3 -1589 -13z"/>
<path d="M4 6299 c-2 -3 1 -21 6 -39 5 -19 8 -36 5 -38 -2 -3 2 -17 11 -33 8
-16 13 -29 10 -29 -2 0 1 -19 6 -42 5 -24 11 -50 13 -58 2 -9 15 -69 30 -135
15 -66 29 -128 31 -138 2 -10 6 -27 9 -37 3 -10 8 -31 10 -46 2 -16 9 -49 16
-74 17 -72 17 -72 34 -150 3 -14 7 -34 9 -46 2 -11 11 -49 20 -85 8 -35 18
-75 20 -89 2 -14 12 -56 21 -95 9 -38 19 -81 21 -94 3 -12 12 -53 20 -90 32
-135 65 -282 69 -306 1 -11 8 -38 13 -60 12 -42 21 -87 27 -120 1 -11 8 -38
14 -60 6 -22 12 -49 14 -60 2 -11 7 -31 10 -45 7 -30 76 -341 82 -367 2 -10
11 -49 20 -88 9 -38 19 -81 21 -95 3 -14 11 -53 19 -86 8 -34 16 -74 19 -89 3
-14 10 -41 16 -58 11 -34 -2 -26 300 -184 69 -36 132 -72 142 -80 9 -8 22 -15
30 -17 7 -1 18 -4 23 -8 17 -10 95 -53 190 -103 86 -46 162 -86 270 -145 28
-15 109 -58 180 -95 72 -38 137 -74 146 -82 9 -7 26 -16 39 -18 13 -2 30 -11
39 -18 14 -13 138 -79 331 -179 36 -18 67 -36 70 -39 3 -3 30 -18 60 -33 30
-15 75 -39 100 -53 25 -13 88 -47 140 -75 52 -27 118 -62 145 -77 28 -15 93
-50 145 -78 122 -65 222 -119 285 -153 28 -15 84 -45 125 -66 41 -21 77 -41
80 -44 3 -3 30 -17 60 -33 30 -15 89 -45 130 -68 41 -22 107 -57 145 -77 39
-20 73 -41 77 -47 4 -5 8 -6 8 -1 0 5 6 4 13 -2 7 -6 53 -32 102 -57 50 -26
95 -50 100 -54 6 -5 73 -41 150 -81 77 -40 145 -76 150 -80 6 -4 60 -33 120
-65 61 -32 115 -62 122 -67 6 -5 13 -5 15 -1 4 7 3 3168 -1 3184 -1 7 -12 8
-78 9 -29 0 -77 0 -105 0 -29 0 -60 0 -68 0 -22 -1 -62 1 -85 4 -11 1 -24 0
-29 -3 -14 -7 -103 -4 -116 4 -5 3 -10 1 -10 -5 0 -6 -5 -8 -11 -5 -6 4 -34 7
-62 6 -29 0 -74 -1 -102 -1 -27 0 -57 0 -65 0 -22 -1 -62 1 -85 4 -11 1 -24 0
-29 -3 -14 -7 -103 -4 -116 4 -5 3 -10 1 -10 -5 0 -6 -5 -8 -11 -5 -6 4 -33 7
-60 6 -27 -1 -73 -1 -101 -1 -29 0 -60 0 -68 0 -22 -1 -62 1 -85 4 -11 1 -24
0 -29 -3 -12 -6 -106 -4 -113 2 -2 3 -18 1 -34 -3 -18 -5 -29 -5 -29 1 0 6 -8
6 -20 -1 -15 -8 -17 -15 -11 -33 5 -12 5 -31 1 -42 -4 -11 -4 -30 1 -42 5 -13
4 -25 -2 -29 -7 -4 -7 -10 0 -18 6 -7 6 -17 1 -26 -5 -8 -5 -21 0 -31 5 -9 7
-19 4 -22 -4 -3 -6 -34 -5 -67 0 -48 -2 -60 -12 -52 -6 5 -52 31 -102 57 -49
26 -133 72 -186 101 -54 30 -102 54 -108 54 -6 0 -11 3 -11 8 0 4 -17 15 -37
24 -21 10 -69 36 -108 58 -38 22 -92 51 -120 65 -27 14 -72 38 -100 54 -27 15
-90 49 -140 76 -49 26 -94 51 -100 55 -5 4 -55 31 -110 60 -55 29 -104 57
-109 61 -10 9 15 10 222 10 42 0 86 -1 97 -1 11 -1 25 -1 30 -1 74 0 155 0
175 0 14 -1 59 0 100 0 78 2 254 3 280 2 8 0 47 0 85 0 39 1 77 1 85 0 8 0 47
0 85 0 39 1 77 1 85 1 100 -4 170 -3 178 2 6 3 13 2 17 -4 4 -6 10 -8 15 -5 5
3 53 5 107 5 54 0 141 1 193 1 52 0 102 0 110 0 8 0 49 0 90 0 41 1 83 1 93 1
9 -1 52 -1 95 -1 42 0 86 -1 97 -1 11 -1 25 -1 30 -1 74 0 155 0 175 0 14 -1
59 0 100 0 41 1 116 2 165 2 50 0 102 1 118 3 15 2 30 -1 33 -6 3 -4 9 -6 14
-3 5 3 37 6 72 6 35 0 95 0 133 1 39 0 77 0 85 0 100 -4 170 -3 178 2 6 3 13
2 17 -4 4 -6 10 -8 15 -5 5 3 53 5 107 5 54 0 141 1 193 1 52 0 102 0 110 0 8
0 49 0 90 0 41 1 83 1 93 1 9 -1 52 -1 95 -1 42 0 86 -1 97 -1 11 -1 25 -1 30
-1 74 0 155 0 175 0 14 -1 59 0 100 0 78 2 254 3 280 2 8 0 47 0 85 0 39 1 77
1 85 0 8 0 47 0 85 0 39 1 77 1 85 1 100 -4 170 -3 178 2 6 3 13 2 17 -4 4 -6
10 -8 15 -5 5 3 53 5 107 5 54 0 141 1 193 1 52 0 102 0 110 0 8 0 49 -1 90
-1 l75 0 -35 -18 c-19 -10 -87 -47 -150 -81 -157 -87 -205 -113 -275 -151
-162 -87 -192 -104 -220 -120 -30 -18 -183 -100 -240 -128 -16 -9 -32 -18 -35
-21 -3 -3 -34 -21 -70 -39 -68 -35 -82 -42 -142 -79 -21 -13 -38 -21 -38 -17
0 3 -14 -5 -31 -17 l-31 -22 3 57 c2 31 0 56 -4 56 -4 0 -3 8 2 19 6 10 8 21
4 24 -5 6 -7 85 -3 105 2 7 0 74 -2 100 -1 12 -14 17 -33 12 -5 -1 -32 -2 -60
-1 -27 1 -57 1 -65 1 -22 -1 -62 1 -85 4 -11 1 -24 0 -29 -3 -14 -7 -103 -4
-116 4 -5 3 -10 1 -10 -5 0 -6 -5 -8 -11 -5 -6 4 -33 7 -60 6 -27 -1 -73 -1
-101 -1 -29 0 -60 0 -68 0 -22 -1 -62 1 -85 4 -11 1 -24 0 -29 -3 -14 -7 -103
-4 -116 4 -5 3 -10 1 -10 -5 0 -6 -5 -8 -11 -5 -6 4 -33 7 -60 6 -27 -1 -73
-1 -101 -1 -29 0 -60 0 -68 0 -22 -1 -62 1 -85 4 -11 1 -24 0 -29 -3 -14 -7
-103 -4 -116 4 -5 3 -10 1 -10 -5 0 -6 -5 -8 -11 -5 -10 7 -72 8 -134 3 l-30
-3 0 -1597 0 -1596 97 51 c54 29 124 66 156 83 285 152 357 190 422 226 89 49
176 96 240 128 36 19 77 42 93 52 15 11 27 16 27 12 0 -3 6 -2 12 4 14 10 50
31 183 102 44 23 107 57 140 75 77 42 190 101 285 151 41 21 77 41 80 44 3 3
32 18 65 35 33 16 62 32 65 35 3 3 32 19 65 36 123 63 280 147 290 154 6 4 56
32 113 61 56 30 124 65 150 79 26 14 97 52 157 84 110 59 196 105 290 156 100
55 161 88 225 120 36 19 77 42 93 52 15 11 27 17 27 14 0 -3 26 10 58 29 31
19 62 35 69 35 6 0 13 3 15 8 2 4 23 17 48 30 25 12 79 40 120 63 41 22 120
65 175 94 109 58 231 124 257 140 9 6 20 26 23 45 5 31 26 122 55 245 6 22 12
52 14 67 3 15 7 32 10 36 3 5 8 24 10 43 2 19 14 75 26 124 12 50 24 99 26
110 4 21 63 286 71 320 3 11 6 27 7 35 3 15 12 56 21 95 8 30 34 147 39 170 2
11 7 31 10 45 10 43 144 644 150 670 4 21 37 163 51 225 3 11 7 31 10 45 3 14
7 35 10 48 6 26 3 13 50 217 39 170 42 186 47 225 l3 25 -4793 0 c-2637 0
-4796 -3 -4798 -6z"/>
</g>
</svg>
