<?xml version="1.0" encoding="UTF-8"?>
<!-- Generator: Adobe Illustrator 21.1.0, SVG Export Plug-In . SVG Version: 6.00 Build 0)  -->
<!DOCTYPE svg PUBLIC "-//W3C//DTD SVG 1.1//EN" "http://www.w3.org/Graphics/SVG/1.1/DTD/svg11.dtd">
<svg fill="white" version="1.1" id="Calque_1" xmlns="http://www.w3.org/2000/svg" xmlns:xlink="http://www.w3.org/1999/xlink" x="0px" y="0px" viewBox="0 0 595.3 186.9" style="enable-background:new 0 0 595.3 186.9;" xml:space="preserve">
<style type="text/css">
	.st0{fill-rule:evenodd;clip-rule:evenodd;}
</style>
<g>
	<g>
		<g>
			<g>
				<path d="M268.7,82.4c-2.1-2.1-4.7-3.8-7.5-5c-5.7-2.4-12.6-2.4-18.2,0c-2.8,1.2-5.3,2.9-7.4,5c-2.1,2.1-3.8,4.6-5,7.5      c-1.2,2.8-1.8,5.9-1.8,9.1c0,3.3,0.6,6.3,1.8,9.1c1.2,2.8,2.9,5.3,5,7.4c2.1,2.1,4.6,3.8,7.4,5c2.8,1.2,5.9,1.8,9.1,1.8      c3.2,0,6.3-0.6,9.1-1.8c2.8-1.2,5.3-2.9,7.5-5c2.1-2.1,3.8-4.6,5-7.4c1.2-2.8,1.8-5.9,1.8-9.1c0-3.2-0.6-6.2-1.8-9.1      C272.5,87,270.8,84.5,268.7,82.4 M270.5,98.9c0,2.5-0.5,5-1.5,7.2c-1,2.2-2.3,4.2-3.9,5.9c-1.7,1.6-3.6,3-5.9,3.9      c-4.5,1.9-9.9,1.9-14.3,0c-2.2-1-4.2-2.3-5.9-3.9c-1.6-1.6-3-3.6-3.9-5.9c-1-2.2-1.5-4.6-1.5-7.2c0-2.5,0.5-4.9,1.5-7.2      c1-2.2,2.3-4.2,3.9-5.9c1.7-1.6,3.6-3,5.9-3.9c2.2-1,4.6-1.5,7.2-1.5c2.5,0,4.9,0.5,7.2,1.5c2.3,1,4.2,2.3,5.9,3.9      c1.6,1.7,3,3.6,3.9,5.9C270,94,270.5,96.4,270.5,98.9"/>
				<path d="M206.8,112c-1.7,1.7-3.7,3-5.9,4c-4.4,1.9-9.9,1.9-14.3,0c-2.2-1-4.2-2.3-5.9-3.9c-1.7-1.6-3-3.6-3.9-5.9      c-1-2.2-1.5-4.6-1.5-7.2c0-2.5,0.5-4.9,1.5-7.2c1-2.2,2.3-4.2,3.9-5.9c1.7-1.6,3.6-3,5.9-3.9c4.5-1.9,9.9-1.9,14.4,0      c2.2,1,4.2,2.3,5.8,3.9c0.2,0.2,0.5,0.4,0.8,0.5l3.3-3.3c-0.1-0.3-0.3-0.5-0.5-0.7c-2.1-2.1-4.6-3.8-7.4-5      c-5.7-2.5-12.7-2.5-18.3,0c-2.8,1.2-5.3,2.9-7.4,5c-2.1,2.1-3.8,4.6-5,7.5c-1.2,2.8-1.8,5.9-1.8,9.1c0,3.3,0.6,6.3,1.8,9.1      c1.2,2.8,2.9,5.3,5,7.4c2.1,2.1,4.6,3.8,7.4,5c2.8,1.2,5.9,1.8,9.1,1.8c3.2,0,6.3-0.6,9.1-1.8c2.8-1.2,5.3-2.9,7.5-5.1      c0.1,0,0.1-0.1,0.1-0.2l-3.4-3.5C206.9,111.9,206.8,111.9,206.8,112"/>
				<path d="M352,121.8l6.8-14.2h24.5l6.8,14.2h5.5l-21.2-44.3c-0.4-0.8-1-1.4-1.7-1.6c-1.2-0.4-1.9-0.4-3.2,0      c-0.7,0.2-1.3,0.8-1.7,1.6l-21.3,44.3H352z M371.1,82.2l9.9,20.5h-19.8L371.1,82.2z"/>
				<path d="M487.8,121.8V78.3c0-0.7-0.2-1.3-0.7-1.8c-0.9-0.9-2.6-0.9-3.6,0c-0.5,0.5-0.7,1.1-0.7,1.8v43.4H487.8z"/>
				<path d="M452.7,76.1l-18.7,39.5l-19-39.5h-5.5l21.2,44.3c0.4,0.8,1,1.4,1.7,1.6c0.6,0.2,1.1,0.3,1.6,0.3c0.4,0,1-0.1,1.6-0.3      c0.7-0.2,1.3-0.8,1.8-1.6l20.9-44.3H452.7z"/>
				<path d="M561.2,76.1v37.4L524,77c-0.4-0.4-0.7-0.7-1-0.8c-0.8-0.4-2.2-0.3-3,0.4c-0.5,0.5-0.7,1.1-0.7,1.8v43.4h5V84.3      l37.1,36.6c0.4,0.4,0.7,0.7,1,0.8c0.3,0.2,0.7,0.3,1.2,0.3c0.7,0,1.3-0.3,1.8-0.7c0.5-0.5,0.7-1.1,0.7-1.8V76.1H561.2z"/>
				<path d="M325.5,113.7c-1.6-1.3-5.1-4.7-6.9-6.7l-3.3-3.6c1-0.4,2-0.9,2.9-1.5c1.3-0.8,2.4-1.9,3.3-3.1c0.9-1.2,1.6-2.5,2.1-3.9      c0.5-1.4,0.8-3,0.8-4.6c0-1.9-0.4-3.8-1.1-5.5c-0.7-1.7-1.7-3.2-3-4.5c-1.3-1.3-2.8-2.3-4.5-3c-1.7-0.7-3.6-1.1-5.5-1.1h-14.7      c-0.7,0-1.3,0.2-1.8,0.7c-0.5,0.5-0.7,1.1-0.7,1.8v43.1h5v-17.5v-4.9V81h11.9c1.2,0,2.5,0.2,3.6,0.7c1.1,0.5,2.1,1.2,2.9,2      c0.8,0.8,1.5,1.8,2,2.9c0.5,1.1,0.7,2.3,0.7,3.6c0,1.2-0.3,2.5-0.7,3.6c-0.5,1.1-1.1,2.1-2,2.9c-0.8,0.8-1.8,1.5-2.9,2      c-1.1,0.5-2.3,0.7-3.6,0.7H305l9.6,11c1.4,1.6,4.7,4.8,6.1,6.2c1.5,1.4,3.3,3,5,4.1c5.9,3.5,10.1-0.2,10.1-0.2      C333,120.5,325.5,113.7,325.5,113.7"/>
				<polygon points="575.8,77 575.8,76 582.8,76 582.8,77 579.9,77 579.9,84.8 578.7,84.8 578.7,77     "/>
				<polygon points="585.4,76 588.1,83.4 590.9,76 592.5,76 592.5,84.8 591.4,84.8 591.4,77.5 591.4,77.5 588.6,84.8 587.7,84.8       584.9,77.5 584.9,77.5 584.9,84.8 583.8,84.8 583.8,76     "/>
			</g>
		</g>
		<g>
			<path d="M81.3,164.2c3.1-5.2,8.9-17.2,8.9-33.4V90.4c0-8.1,2.6-16.9,9.4-21.5c31.2-21.3,55-48,59.7-65.7c0,0,1.9,41.6-17.4,78.7     C130.9,103.2,81.8,182,81.3,182.8c-0.5-0.8-49.6-79.5-60.7-100.9C1.3,44.7,3.2,3.2,3.2,3.2C7.9,20.9,31.8,47.6,63,68.9     c6.8,4.7,9.4,13.4,9.4,21.5v40.5C72.4,147,78.2,159,81.3,164.2"/>
			<path class="st0" d="M85.5,133c0,2.3-1.9,4.2-4.2,4.2c-2.3,0-4.2-1.9-4.2-4.2c0-2.3,1.9-4.2,4.2-4.2     C83.6,128.8,85.5,130.7,85.5,133"/>
		</g>
	</g>
</g>
</svg>