<svg fill="white" id="Layer_1" data-name="Layer 1" xmlns="http://www.w3.org/2000/svg" viewBox="0 0 330.24 396.24"><defs><style></style></defs><title>rbl</title><path class="cls-1" d="M115,228.32c-.51,0-1,0-1.55,0H1.54c-.51,0-1,.07-1.54.11V0H205.92c0,.4,0,.8,0,1.2V158.55c0,.4,0,.79,0,1.19l-7.6,1.43a2.09,2.09,0,0,1-.34.08c-1.41,0-2.83,0-4.23.08a10.34,10.34,0,0,0-4.53,1.68,3.67,3.67,0,0,1-4.05.15,1.81,1.81,0,0,0-2.38-.08c-1.7,1.32-3.7,1.44-5.71,1.8a10.91,10.91,0,0,0-5.62,2.51,7.76,7.76,0,0,1-2.53,1.38,33,33,0,0,1-3.28.89,3.9,3.9,0,0,1-1,.18,10.88,10.88,0,0,0-7.21,2.43,5.87,5.87,0,0,1-2.73,1.45,6.08,6.08,0,0,0-4.92,3.05,1.54,1.54,0,0,1-.7.66c-1.8.77-3.42,1.67-4,3.78a2,2,0,0,1-1.33,1.16,6.2,6.2,0,0,0-5.19,3.86,1.47,1.47,0,0,1-1.17.64,3.12,3.12,0,0,0-3.51,2,4,4,0,0,1-1.44,1.69c-1.38.79-2.42,1.68-2.36,3.43a.83.83,0,0,1-.38.63c-2.6,1.4-3.49,4-4.59,6.46-.8,1.76-1.34,3.62-3,4.88-.27.22-.3.75-.43,1.14s-.09,1-.35,1.15a4.57,4.57,0,0,0-2,4.52,3.5,3.5,0,0,1-1.23,2.94,3.86,3.86,0,0,0-1.35,2.15c-.09,2.62-1.7,4.62-2.5,6.93a2.51,2.51,0,0,0,.57,3C114.94,227.9,115,228.13,115,228.32ZM155.32,127a20.91,20.91,0,0,0-1.48-8.2c-5.09-13.07-21.21-16.52-31-6.48-5.94,6.08-7.24,13.52-5,21.55a18.75,18.75,0,0,0,25.24,12.53C150.53,143.33,155.32,135.73,155.32,127Zm9.12-10.68,11.71,16.86c2.56,3.67,5.09,7.36,7.7,11a11.7,11.7,0,0,0,6.12,4.55v-1.42q0-15.94,0-31.9c0-2.84-.12-5.72,2.91-7.7h-9.69a5.85,5.85,0,0,1,2.87,5.24q0,12.06,0,24.1c0,.08-.13.16-.25.3-2.7-3.88-5.39-7.69-8-11.54C173.71,119.9,169.67,114,165.6,108c-.12-.17-.34-.39-.52-.39-2.38,0-4.76,0-7.25,0a8.66,8.66,0,0,1,1.74,2.14,13.41,13.41,0,0,1,.9,4.27c.09,8.39,0,16.79.05,25.18,0,2.84,0,5.64-3,7.58h9.89c-2.46-1.53-3-3.66-3-6q0-11.86,0-23.74C164.37,116.89,164.4,116.74,164.44,116.33Zm-63.95,10.61H92.41a4.4,4.4,0,0,1,2.43,3.93c.1,3.08.12,6.15.15,9.23,0,2.37,0,2.39-2.32,2.87-5.08,1.05-9.91.7-14-2.91-5.31-4.72-6.77-10.78-5.42-17.53,1-5.26,4-9.18,9.32-10.73,5-1.46,9.81-1.21,13.85,2.68,0,0,.14,0,.28,0v-6c0-.23,0-.47,0-.68a28,28,0,0,0-11.05-1c-7.08.71-12.86,3.71-16.39,10.16a22.64,22.64,0,0,0-2.32,13.36,18.56,18.56,0,0,0,14,16.55c6.64,1.82,13.13.61,19.6-.85ZM64.86,139.21c-2.42,1.93-5,3.32-8.11,3.3-2.73,0-5.47-.41-8.21-.64V127.62c2.91.49,6-.8,8.52,1.71v-6.07H48.52v-11c4,0,8.09-1.45,11.45,2v-6.72H40.78a6,6,0,0,1,2.16,5.11q.08,13.73.05,27.47c0,2.45.09,5-2.39,6.65h22C63.34,144.24,64.1,141.72,64.86,139.21ZM13.63,107.69a5,5,0,0,1,1.95,3.36,16.82,16.82,0,0,1,.25,2.74c0,9,0,18,0,27,0,2.26-.1,4.56-2.55,6.11,7.25,0,14.2,0,21.14,0a1,1,0,0,0,.8-.48c.87-2.42,1.69-4.87,2.64-7.66l-1.36,1.1A10.64,10.64,0,0,1,30,142.48c-2.86,0-5.72-.28-8.6-.44a7,7,0,0,1-.1-.83c0-9.43,0-18.86,0-28.3,0-2,.31-3.89,2.39-5.22Zm90.51,0c2.07,1.29,2.39,3.17,2.4,5.11q.08,13.85,0,27.7c0,2.3,0,4.68-2.34,6.27h10.07a5.08,5.08,0,0,1-2.23-4.58q-.1-14.32-.08-28.66c0-2.14.11-4.34,2.42-5.84ZM66.27,84.86a15.34,15.34,0,0,0,.22,1.66,7.08,7.08,0,0,0,5.09,5.8,6.46,6.46,0,0,0,6.92-2.14,8.46,8.46,0,0,0,2-5.27c.26-3.58-2.1-7.09-5.33-7.89C70.58,75.88,66.32,79.51,66.27,84.86Zm56,7.28c1.61,0,3.41.12,5.19,0a4.41,4.41,0,0,0,4.09-3.34c.68-2.25-.1-3.81-2.64-5.35,1.54-1.31,2-2.56,1.42-4.07s-1.75-2.08-3.69-2.1c-1.52,0-3,0-4.37,0a19,19,0,0,1,.39,2.58c0,3.24,0,6.48,0,9.71A20.93,20.93,0,0,1,122.28,92.14Zm-94.79-9,.3-5.9H25.08a20.73,20.73,0,0,1,.37,2.66q.07,4.78,0,9.59A17.61,17.61,0,0,1,25,92.16H28.1c-1-2.34-.31-4.77-.56-7.16h6.92c-.28,2.42.48,4.84-.63,7.15h3a77.56,77.56,0,0,1,0-14.85h-2.6l.34,5.87Zm160.44-5.9.3,5.88h-7c.15-2-.37-4,.67-5.87h-3.22c1.11,2.41.55,5,.55,7.43s.56,5-.54,7.41h3.16c-1.07-2.34-.41-4.74-.63-7.1h6.89c0,2,0,3.92,0,5.83a4.13,4.13,0,0,1-.51,1.3h3.33c-1-1.58-1-13.1-.05-14.88Zm-50.85,14.9a6.79,6.79,0,0,1-.51-1.72c0-3.64,0-7.28,0-10.91a1,1,0,0,1,.39-.74,2.42,2.42,0,0,1,3.22,1.81,2.9,2.9,0,0,1-1.77,3.31c-.45.21-.93.36-1.58.61,1.32,2.06,2.54,4,3.81,6,1.18,1.76,2.11,2.08,4,1.62q-2.61-3.39-5.39-7c.57-.34.92-.52,1.24-.74a4.13,4.13,0,0,0,1.72-4.4A3.27,3.27,0,0,0,139,77.29c-1.7-.09-3.42,0-4.95,0a20.74,20.74,0,0,1,.37,2.54c0,3.28,0,6.55,0,9.83a17.39,17.39,0,0,1-.38,2.53Zm-78.39,0a8.05,8.05,0,0,1-.54-1.92c0-3.56,0-7.12,0-10.68a1.05,1.05,0,0,1,.49-.77,2.4,2.4,0,0,1,3.15,1.76A2.92,2.92,0,0,1,60,83.94c-.45.21-.93.35-1.55.58,1.33,2.08,2.56,4,3.83,6,1.18,1.77,2.1,2.08,3.92,1.62L60.79,85c.59-.33.92-.48,1.21-.67a4.2,4.2,0,0,0,1.75-4.62c-.44-1.57-1.82-2.49-3.79-2.51-1.47,0-3,0-4.45,0,.91,2,.85,13.34-.06,14.92Zm35.72,0c-.89-2.09.71-3.69.87-5.59h2.26c2.57,0,2.57,0,3.37,2.4a6,6,0,0,1,.39,1.25,16.34,16.34,0,0,1,0,1.85h3.28a25.88,25.88,0,0,1-1.29-2.51c-.64-1.67-1.18-3.38-1.77-5.07L99,77.28H96.16c.56,1.28-3.24,12.84-4.88,14.88a4.7,4.7,0,0,0,.47,0Zm72.7-2.75c.49,2.81-.16,2.58,3.22,3.1a1.81,1.81,0,0,0,.23,0A5.22,5.22,0,0,0,176,89.15c.68-2.1-.13-3.68-2.62-5.12-.87-.5-1.76-1-2.58-1.51a2.22,2.22,0,0,1-1-2.77,2.49,2.49,0,0,1,2.79-1.13,18.14,18.14,0,0,1,2.45,1c.27-2.49.07-2.74-2.45-2.81a8.5,8.5,0,0,0-1.67.14c-2,.37-3.17,1.39-3.51,3.09a4.08,4.08,0,0,0,2,4.38c1,.63,2,1.12,3,1.74,1.34.84,1.81,1.89,1.44,3a2.58,2.58,0,0,1-3,1.62A25.61,25.61,0,0,1,167.11,89.45ZM42.82,84.86l3.08.28v-2H42.77c0-1.22-.05-2.37,0-3.52a1,1,0,0,1,.7-.65c1.17,0,2.35.2,3.48.32V77.24h-6.6a61.38,61.38,0,0,1,0,14.9H48l.78-2.75c-1.86,1.57-3.88,1.16-5.94.78ZM13.19,79.4l3.91-.61c0,4,0,7.72,0,11.43a8.16,8.16,0,0,1-.5,1.94h3.21a16.16,16.16,0,0,1-.58-2.67c-.09-2.11,0-4.23,0-6.35V78.75l3.56.65.48-2.24H13.73Zm67.5-2.05A17.94,17.94,0,0,1,81.85,79C83,81,84.07,83.12,85.17,85.2a1.37,1.37,0,0,1,.24.66c-.12,2.1.48,4.27-.6,6.28H88.1c-.87-2.51-1.3-5-.06-7.46s2.7-4.86,4.13-7.39h-3a5.35,5.35,0,0,1,0,2c-.68,1.46-1.56,2.83-2.45,4.39-.81-1.57-1.65-2.93-2.24-4.39C83.73,77.53,82.59,76.81,80.69,77.35Zm73.08,14.77H157a15.5,15.5,0,0,1-.55-2.49c-.08-2,0-4,0-6V78.76l3.53.61.48-2.2h-9.45l-.57,2.22,3.94-.61c0,4,0,7.79,0,11.54A7.09,7.09,0,0,1,153.77,92.12Zm-44.36-1.9c0-3.51,0-6.9,0-10.29a19,19,0,0,1,.38-2.62H106.7c.84,1.45.87,13,.06,14.9,2.37,0,4.73,0,7.08,0a.93.93,0,0,0,.75-.39c.33-.81.57-1.66.84-2.5C113.59,90.93,111.56,90.54,109.41,90.22ZM165,92.15c-1.05-2.44-.52-5-.52-7.43s-.54-5,.48-7.41h-3a10.76,10.76,0,0,1,.43,2.07c0,3.55.05,7.1,0,10.65a10.41,10.41,0,0,1-.48,2.12ZM146,77.27c.9,2,.84,13.28-.09,14.88h3.29c-1.13-2.39-.54-4.93-.55-7.39s-.53-5,.51-7.49Z" transform="translate(0)"/><path class="cls-2" d="M209.28,396.24a2.91,2.91,0,0,1-.38-.95,7.23,7.23,0,0,1,.17-1.38l1.05.38c.11,0,.24,0,.35.06,1.61.33,1.73.64.73,1.89Z" transform="translate(0)"/><path class="cls-3" d="M330.24,314.4c-.47.52-.78,1.33-1.74.92-.2-.73-.39-1.46-.67-2.51l2.41.87Z" transform="translate(0)"/><path class="cls-4" d="M115,228.32c0-.19-.06-.42-.18-.54a2.51,2.51,0,0,1-.57-3c.8-2.31,2.41-4.31,2.5-6.93a3.86,3.86,0,0,1,1.35-2.15,3.5,3.5,0,0,0,1.23-2.94,4.57,4.57,0,0,1,2-4.52c.26-.17.23-.76.35-1.15s.16-.92.43-1.14c1.63-1.26,2.17-3.12,3-4.88,1.1-2.43,2-5.06,4.59-6.46a.83.83,0,0,0,.38-.63c-.06-1.75,1-2.64,2.36-3.43a4,4,0,0,0,1.44-1.69,3.12,3.12,0,0,1,3.51-2,1.47,1.47,0,0,0,1.17-.64,6.2,6.2,0,0,1,5.19-3.86,2,2,0,0,0,1.33-1.16c.61-2.11,2.23-3,4-3.78a1.54,1.54,0,0,0,.7-.66,6.08,6.08,0,0,1,4.92-3.05,5.87,5.87,0,0,0,2.73-1.45,10.88,10.88,0,0,1,7.21-2.43,3.9,3.9,0,0,0,1-.18,33,33,0,0,0,3.28-.89,7.76,7.76,0,0,0,2.53-1.38,10.91,10.91,0,0,1,5.62-2.51c2-.36,4-.48,5.71-1.8a1.81,1.81,0,0,1,2.38.08,3.67,3.67,0,0,0,4.05-.15,10.34,10.34,0,0,1,4.53-1.68c1.4-.12,2.82-.05,4.23-.08a2.09,2.09,0,0,0,.34-.08l7.6-1.43c1.82-.51,3.47.38,5.21.59s3.65.5,5.48.74c2.59.35,5.27.39,7.52,2,.11.08.38,0,.55-.05,1.78-.74,2.62-.45,3.78,1.11a9.36,9.36,0,0,0,2.13,2,2,2,0,0,1,.55-2.4,2,2,0,0,1,2.31-.33,2.8,2.8,0,0,0,1.72.23c1.92-.52,2.94.52,3.83,1.94.26.42.56.82.92,1.33.52-2.06,2.13-1.31,3.27-1.28,1.61,0,2,1.4,2.23,2.89l.81-.35c1.2-.51,1.28-.4,1.37.93a6.06,6.06,0,0,0,.77,1.71c.53-1.1.9-2,1.72-.74,0,.05.14.12.2.1,2.28-.64,2.83,1.86,4.43,2.47a7.86,7.86,0,0,1,1.37.86l-.23.41c.27-.2.66-.35.77-.61.41-.94.92-.62,1.28-.08a12.7,12.7,0,0,1,.85,1.87c.33.75.67,1.5,1.09,2.43.3-.4.49-.55.46-.64-.25-.8-.08-1.38.81-1.55a1.47,1.47,0,0,1,1.69,1c.69,1.92,1.27,3.87,2,6l.84-.94c.3-.32.56-.78.92-.88s.63.42.88.72a2.59,2.59,0,0,1,.15,2.71,3.24,3.24,0,0,0,.22,2.92c.55.88.94.91,1.52.08.14-.19.37-.33.47-.53.4-.81.76-1.59,1.91-1a2.23,2.23,0,0,1,1.23,2.6,16,16,0,0,0-.36,2.46c0,1.43.83,1.92,2.13,1.32,1-.45,2.1.34,2.28,1.65a10.1,10.1,0,0,1,0,1.55c0,.73,0,1.47,0,2.2s.18,1.54-.69,2.11c-.68.46-.38,2.76.35,3.26a.48.48,0,0,0,.43,0,.64.64,0,0,0,.27-.45,4.67,4.67,0,0,0-.28-.76c-.28-.93,0-1.27,1-1.1s2.09.42,2.44,1.7a1.93,1.93,0,0,1-.74,2.29,11.52,11.52,0,0,0-1.35,1.5c1.57.21,2.48-.51,3.06-2,.21-.55,0-1.65.83-1.51.53.08,1.17,1,1.31,1.62a25.83,25.83,0,0,1,.27,3.87l-2.77-.62c.12.25.16.47.28.52,1.45.61,1.67,1.81,1.61,3.18,0,.88,0,1.75,0,2.71l1.5-.16c-.05-.44-.22-.84-.1-1.12.2-.47.51-1.08.92-1.23a1,1,0,0,1,1.45,1c0,.6.51,1.49-.69,1.73a1.56,1.56,0,0,0-.26,1.26c1.13,1.1,1.16,2.4,1,3.89-1.14-.06-1.62.5-1.73,1.66-.09,1-.7,1.68-2.12,1,.2.7.33,1.18.45,1.59.56-.26,1-.61,1.29-.55s.36.65.51,1c.06.14,0,.39.07.46,1.21,1,.21,1.51-.36,2.26a6,6,0,0,0-1.09,4.39,6,6,0,0,1-1.68,5.09,18.73,18.73,0,0,0-2.22,3.46.63.63,0,0,0,.22.8c1.25.65,2.47,1.35,3.75,1.93a2.27,2.27,0,0,0,1.61.14c1.75-.72,2.73.18,3.65,1.46a2.93,2.93,0,0,0,1.15,1c.87.36,1.56.76,1.24,1.8.79.13,1.49.19,2.17.36.27.07.66.31.7.53.2,1.18,1,1.16,1.86,1s1.64-.06,2.07,1.1c.56,1.49,1.45,1.73,2.64,1.3a23.14,23.14,0,0,0,3.28,2,2.46,2.46,0,0,1,1.71,2.67l2.25,2.07.22.63.38,1.15c1,.14,2.29-.45,2.74.94.34,1,1,1.29,2,1.57a3.69,3.69,0,0,1,1.63,1.31c.21.27,0,.86-.1,1.3,0,.86,2.19,1.08.38,2.67l2.2.42,0,0,.25.63h0a1.44,1.44,0,0,1-.47,2.15c-.28.17-.38.62-.56.95l.94.5,2.21,1.16,0,.06c.15,1.58-1.49,1.8-2.18,2.74l.14.31,3.25-1a2.34,2.34,0,0,1,1,3.35h0c-1.23,1.55-1.13,1.87.85,2.68h0c1.94,1,2.84,2.39,2.23,4.87a2.21,2.21,0,0,0,.62,2.37,2.61,2.61,0,0,1,.81,3.18c-.2.47.19,1.24.41,1.83a3,3,0,0,1-.8,3.2,6.5,6.5,0,0,1-1.25.49l0,.3c.41.08.82.13,1.21.24,2.11.6,2.78,1.94,2,4.47a5.28,5.28,0,0,0,.47,3.8,6.81,6.81,0,0,1,.16,3.34c-.05.37-.84.65-1.35,1a2.91,2.91,0,0,1,.27.56,1.72,1.72,0,0,1-1.44,2.17,4.8,4.8,0,0,0-1.88.44l2.87.9c0,1,0,2.15,0,3.34,0,.24-.3.49-.51.68s-.61.44-1.12.81c2.17,1.21,1.54,3.39,2,5.14.15.54-.95,1.43-1.58,2.3-.38-.62-.58-1-.77-1.28a1.55,1.55,0,0,0-.32.15c.24,1.48.46,3,.75,4.43a1.39,1.39,0,0,1-1.26,1.38,8.67,8.67,0,0,1-1.14-.15c-.46,1,.52,2.31-1.08,2.9.6.56,1.18,1,1.67,1.59.82.92.63,1.75-.48,2.19a3.53,3.53,0,0,1-3.08.11l-.5-2-.45.05a5,5,0,0,0-.07,1.33,1.9,1.9,0,0,1-1.29,2.45c-.78.38-1.55.88-1.5,1.89a3.85,3.85,0,0,0,.49,1.18,3.78,3.78,0,0,0,1-.78c.37-.58.47-1.36.91-1.85a2.69,2.69,0,0,1,1.73-.91c.42,0,.91.71,1.23,1.19a1,1,0,0,1-.28.9,4.16,4.16,0,0,0-1.77,2.65c-.67,1.95-1.83,2.26-3.41.82-.5,1.2.3,3.12-2,3.34.69.89,1.33,1.82.3,2.7a2.31,2.31,0,0,1-1.6.47c-.46-.06-.86-.57-1.47-1-.17,1-.32,1.92-.44,2.81,0,.06.29.16.44.24a1.48,1.48,0,0,0,0,.21s-.07.06-.07.09a.89.89,0,0,0,.07.19l0,0a6.08,6.08,0,0,0-1.22.17c-1.24.43-1.38.34-1.49-1a1.1,1.1,0,0,0-.39-.76c-.27,1.19-.56,2.38-.79,3.58-.16.79-.52,1.3-1.4,1.32-1,0-1.14.66-.9,1.46s.61,1.76.93,2.63.17,1.2-.84,1.32c-.38.05-.72.44-1.07.69s-.49.42-.73.63a3.41,3.41,0,0,1-.38-1,20.42,20.42,0,0,1,.29-2.21c-1.77,1-2.58,2-1.84,3.36.85,1.54-.27,2.4-1,3.44a4.3,4.3,0,0,0-.71,1.5c-.26,1.4-.81,1.95-2,1.92-.36-1.16-.69-2.26-1.05-3.35s.38-1.75.78-2.57,1-1.43,0-2.54a15,15,0,0,0-1,2c-.31,1-.46,2-.72,2.95a1.17,1.17,0,0,1-.4.71,2.83,2.83,0,0,0-1.11,2.6c0,1.36-1.35,1.07-1.83,1.78-.56-.48-1.11-1-1.62-1.42-.8,1.53-1,3-.82,5.86h-1.9l0,0c0-1.14-.07-2.29-.15-3.42,0-.17-.34-.49-.38-.46-.25.12-.6.29-.66.52a16.52,16.52,0,0,0-.51,2.42c-.2,1.55-.29,1.65-1.81,1.66l-1.26,2.06L282.26,378c-1.33,2.21-3,4.1-5.68,4.87-.1-1.18-.19-2.24-.29-3.53-.59.75-1,1.35-1.48,1.86a18.67,18.67,0,0,1-1.57,1.36l-.4-.25.29-2.07c-1.18,1.07-1.64,2.7-3.29,2.87-.24-1-.46-2-.72-3.06-1.19,1.51-2.28,2.82-3.28,4.21-.59.82-.9,1.86-1.56,2.61-1.18,1.34-2.52,1.09-3.47-.49a3.46,3.46,0,0,0-.38-.45l-2.92.71a1.82,1.82,0,0,0-.74.31,2.11,2.11,0,0,1-2.88.3.88.88,0,0,0-1.33.73c-.18,1.3-1.42,1.57-2.14,2.27-1,1-1.42-.6-2.14-.94-.34-.16-.56-.56-.89-.74s-.55-.06-.83-.08c.06.27,0,.62.2.81,1.16,1.31.88,2.35-.84,2.79a2.24,2.24,0,0,1-1.2-.19,8.1,8.1,0,0,1-1.15-.68,12,12,0,0,0-1.07,1,5.78,5.78,0,0,0-.53,1l-.93-3.55c-1.14-.37-1.54.27-1.69,1.26l-.31.48s-.08.05-.07.08a.48.48,0,0,0,.05.17h0a4.69,4.69,0,0,0-2-.11c-.46.17-.77.89-1,1.44s-.53,1.35-1.26,1.29a1.82,1.82,0,0,1-1.3-1,5.37,5.37,0,0,1,.11-2l-2.65-.94a4.23,4.23,0,0,1-3.5,3l-.64-.49-.69-1.34-.45.25c-.59,2.12-2.1.75-3.37,1,.16.4.29.7.39,1s.19.72.28,1.08a8.23,8.23,0,0,1-1.8.37c-.21,0-.57-.56-.59-.88-.11-1.55-.08-1.52-1.65-1.58a3.68,3.68,0,0,1-1.14-.5l-.27-.53-.21.09.27.63a5.79,5.79,0,0,1,0,.72c-.06.51.19,1.26-.76,1.13s-1.56-.51-1.26-1.48a1,1,0,0,0-.57-1.34,5.12,5.12,0,0,0-2.3-.6c-.61.05-.59.6,0,1.08a4.49,4.49,0,0,1,.79,1.41,4.16,4.16,0,0,1-1.43.57c-.87,0-2.09.19-1.8-1.41-1.15-.63-.91-1.65-.88-2.7,0-.39-.61-.79-.95-1.19l-.5.24c.13.85.26,1.69.41,2.54,0,.19.19.39.16.55-.1.55-.27,1.09-.41,1.62-.7-.25-1.6-.31-2-.79a4.48,4.48,0,0,1-1-2.41c-.13-1.31-1.17-1.65-1.91-2.57-.58,1.61-.54,2.81.91,3.61-1.61,1.42-3.47,1-4.25-.8a6,6,0,0,0-1.45-1.71c-.07-.07-.83.41-.82.44.59,1.42-.64,1.94-1.4,2.28a3.44,3.44,0,0,1-2.36-.36,5.78,5.78,0,0,1-1.73-1.41,1.71,1.71,0,0,1-.31-1,15.29,15.29,0,0,1,0-1.53l-1.24.31c.2.77.38,1.47.65,2.54l-1.6-.69a4.56,4.56,0,0,1-1,.74c-1,.44-2-.18-2.8-1.46a2.33,2.33,0,0,0-1.53-1.13c-1.15,0-1.79-.42-2-1.67-.88.65-1.69.95-2.53.17-.65-.61-1.34-1.19-2.17-1.92l.51-1.32L176.71,381a16.34,16.34,0,0,1-.65,2.48,3.4,3.4,0,0,1-1.17,1.51c-.65.42-1.06,0-1.33-.74-.43-1.19-1.75-1.18-2.7-1.66a11.45,11.45,0,0,1-1.64-.66A5.35,5.35,0,0,1,168,380.5a11.4,11.4,0,0,0-.88-1.49c-.3-2.09-.31-2.06-2.39-2.68a16.25,16.25,0,0,1-2.28-1c-1.47-.7-1.47-.71-1.75,1a43.36,43.36,0,0,1-4.26-1.41c-1-.45-.67-1.51-.47-2.33.05-.2.79-.39,1.16-.32a20.52,20.52,0,0,1,2.37.78l.13-.31c-.86-.43-1.73-.84-2.58-1.29-.22-.12-.58-.33-.58-.49.06-1.92-1.59-2.2-2.69-3l-.39.17a6.73,6.73,0,0,0,.39,1.12,1.55,1.55,0,0,0,.64.54c1.25.65,1.45,1.63.9,3a7.86,7.86,0,0,1-5.22-2.85c-1.12-1.24-.58-2.37-.7-3.68l-.92,1-.33-.1.34-2c-.13,0-.61-.23-.72-.1-.92,1-1.63.12-2.15-.35a8.65,8.65,0,0,1-1.62-2.28c-.68-1.24.63-1.78,1.06-2.62.3-.59.73-1.12,1.18-1.82l-3-.39a8.69,8.69,0,0,0,.1,1.51c.27,1.17-.18,1.56-1.45,1.27a3.07,3.07,0,0,0-.15-1.08c-.28-.54-.6-1.25-1.08-1.46a9.67,9.67,0,0,1-5.44-10.14,1.34,1.34,0,0,1,.75-.9c.74-.21,1-.66.8-1.28a2.19,2.19,0,0,0-1-1.22c-.25-.1-.78.49-1.19.77s-.55.49-.82.48a1,1,0,0,1-.69-.58,4,4,0,0,1-.25-1.59c.17-2.17.44-4.33.6-6.49,0-.36-.29-.74-.45-1.11a7.48,7.48,0,0,1-1,.51c-.31.12-.78.34-1,.21s-.27-.63-.28-1a9.51,9.51,0,0,0,.05-1.76c-.62-2.51-1.61-4.93-1.32-7.62.06-.59-.47-1.23-.61-1.87-.26-1.17-.47-2.35-.63-3.53a1.09,1.09,0,0,1,.26-.87c1-.83.44-1.74.31-2.68a21.8,21.8,0,0,1,0-2.8,2.19,2.19,0,0,0-.1-1.1c-.85-1.31-.5-2.49.05-3.81a8.18,8.18,0,0,0,.39-2.94c0-.64-.38-1.31-.33-1.94.07-.81.06-1.76,1.2-2.05a1.49,1.49,0,0,0,1.19-2.06c-.72-2.78.37-5.3,1.4-7.73a72.44,72.44,0,0,1,3.52-6.62,1.82,1.82,0,0,0-.43-2.5c-.88-.75-1.86-1.39-2.71-2.17a23.45,23.45,0,0,1-1.55-1.88,13.76,13.76,0,0,0-1.08-1.08c-1.24-1.19-2.52-2.35-3.74-3.57-.48-.49-.74-1.24-1.27-1.65-1.83-1.45-2.42-3.55-3.13-5.6a9.6,9.6,0,0,0-2.17-3.39,13.82,13.82,0,0,1-4-8.07,32,32,0,0,0-.78-3.67,2.36,2.36,0,0,1-.1-.46c-.18-2-.41-3.91-.49-5.87a18.77,18.77,0,0,1,.4-2.4,4.68,4.68,0,0,0-.07-1.83,22.53,22.53,0,0,1-.22-12A12.33,12.33,0,0,0,115,228.32Zm99.28,22.31h0l.53.18a1.94,1.94,0,0,0,2.1-.89,15.3,15.3,0,0,1,2-1.95c1.27-.93,1.12-2.32,1-3.59-.22-2.32-.38-2.4-2.66-3-.31-.08-.61-.19-.91-.3a4.69,4.69,0,0,0-5.41,2.38c-1,2.43.56,6.15,2.85,6.91h0Zm-17,4.3c.63-1.23.47-2.35-.44-2.9-1.78-1.09-3-.73-4.44,1.34.43,1.34,2.38.93,2.71,2.42,0,.09.63,0,1,.05C196.73,255.86,197.22,255.66,197.3,254.93Zm3.31,19.21,0,0c.65.58,1.58,1,1.42,2.1s-.48,2.22-.72,3.34c-.47,2.16.06,3.78,1.49,4.6h0c.74,1.43,2.06,1.42,3.4,1.39,1.46.13,2.85.25,4-1.09a13.87,13.87,0,0,1,2.28-1.77,2.22,2.22,0,0,1,.07,3.69,3.1,3.1,0,0,0-.83,3.85c.61,1.32,1.8,1.22,2.92,1.36.38-.16,1-.21,1.12-.49a13.53,13.53,0,0,0,1.49-3.18c.48-1.85,1.63-2.68,3.48-2.2a4.67,4.67,0,0,0,1.05.15,11.55,11.55,0,0,0,9-3.54c1.55-1.65,1.91-5,.42-6.59-.69-.74-.42-1.28.18-1.48,1.2-.4,1-1.28,1-2.12,0-1.05,0-2,1.24-2.39.48,1.4,1,2.79,1.4,4.22.43,1.71,1.38,2.6,3.18,2.49a8,8,0,0,0,4.11-2c1.37-1.26,1.56-2.5.3-3.8-.32-.33-.68-.63-1-.95-1.38-1.31-1.31-1.63.33-2.53,1.34-.72,2.63-1.54,3.94-2.32.15-.1.41-.16.45-.28a3.19,3.19,0,0,0-1.61-3.59c-1-.42-1.25-.87-.87-1.9a1.77,1.77,0,0,0-1.38-2.26,8,8,0,0,0-5.48,1.21c-1.21.8-2.35,1.72-3.56,2.61a3.87,3.87,0,0,0-2.23-3.51c-1.64-.73-3.27-.14-4.73.81-.34.22-.7.41-1.14.66-.11-.91-.22-1.62-.28-2.33-.21-2.47-1.49-3.86-4.14-4.33-.07.54-.11,1.08-.22,1.62a11.52,11.52,0,0,1-.51,2.18,2.91,2.91,0,0,1-4.46,1.5,6.41,6.41,0,0,1-1.62-2.63c-.86-1.91-1.93-3.62-4.17-3.94a13.17,13.17,0,0,0-3.18.19,8.83,8.83,0,0,0-7.2,7.33c-.21,2-1.08,2.39-2.8,1.53-.5-.25-1.05-.39-1.53-.67a5.25,5.25,0,0,0-6.38.33c-2.41,1.89-2.55,4-.57,6.4a6.25,6.25,0,0,1,1.35,5c-.32,2.06-.18,3.93,1.56,5.56a6.06,6.06,0,0,0,5.8,1.78c.3-.39.89-.8.86-1.17a4.38,4.38,0,0,1,1-2.66Zm-7.47,16.33,2.71.17,2.65-1.43a2.15,2.15,0,0,0,.57-2.9,5.31,5.31,0,0,0-4.71-2.63c-1.49,0-2.75.72-2.94,1.94a12.09,12.09,0,0,0,0,3.18,1.91,1.91,0,0,0,1.73,1.67l0-.06Zm33.19,5,.51-.24c2.14.19,4.06-.18,5.48-2,.31-.44.85-.87.89-1.34a4.87,4.87,0,0,0-1.34-3.49,5.54,5.54,0,0,0-3.62-2.09c-2.58-.48-6.3,2.93-6,6,.24,2.29,1.74,3.64,4.07,3.15Zm2.4-43c.91.22,1.23-.1,1.46-1.06s-.2-2.28,1-3c.65-.84.5-1.56-.56-2a9.88,9.88,0,0,0-2.87-.7,3.44,3.44,0,0,0-3.41,5.14,3.05,3.05,0,0,0,1.65,1.34A11.92,11.92,0,0,0,228.73,252.5Zm-47.42,25.65a2.78,2.78,0,0,0,2.77,2.55c1.19,0,2.11-1.23,2.12-2.87,0-1.17-.73-1.81-2.13-1.83C182.32,276,181.33,276.74,181.31,278.15Zm143.83,31.38a6.65,6.65,0,0,1,.45-1,7.68,7.68,0,0,1,.84-1c.25-.24.79-.57.76-.64a11.61,11.61,0,0,0-.93-1.39l-.81.61c-.14.11-.25.31-.4.34-1.15.21-1.61,1.07-2.05,2,.38.15.72.26,1,.41S324.65,309.26,325.14,309.53Zm-31.47,55.72c.77,0,1.9-1,1.88-1.6s-1.12-1.5-2.13-1.46c-.84,0-1.43.28-1.36,1.32S292.72,365.26,293.67,365.25Zm-11.69,11c1.52.1,2-.18,2.09-1.2a12,12,0,0,1,.45-1.6c.08-.33.26-.8.12-1s-.8-.49-1-.37a2.78,2.78,0,0,0-1.16,1.27A17.48,17.48,0,0,0,282,376.27Zm-134.06-20c-.14.55-.28,1-.38,1.53,0,.22-.08.54,0,.67.54.61,1.2,1.13,1.71,1.76.71.86,1.13.52,1.62-.24-.77-.56-1.72-.85-1.61-2.12C149.32,357.56,149.34,356,147.92,356.23Zm9.45,11.3-.29-4.38H156c0,.54.19,1.13,0,1.47A2,2,0,0,0,157.37,367.53ZM302,356.76c-1.84-.35-2.46.32-2.08,2,.16.68.2,1.39.32,2.19C301.79,359.94,301.56,358.22,302,356.76ZM228.9,387.05c-.17.63-.17,1.61-.51,1.74-1.33.5-.36,1.26-.34,1.88,0,.18.26.51.36.5a1,1,0,0,0,.63-.37C229.9,389.55,230.29,388.5,228.9,387.05Zm26.43-3.52c-.42-.34-.6-.54-.65-.52a7.89,7.89,0,0,1-1.27.74c-.47.13-1.15-.18-1.48.06a11.3,11.3,0,0,0-1.76,1.89c-.1.12,0,.42,0,.63a2,2,0,0,0,.62-.15c.38-.26.69-.63,1.08-.85C253,384.73,254.08,384.18,255.33,383.53Zm-84.45-4.4v1.08c3.22.37,3.22.37,3.64.08l-.59-1.66Zm95.05,1.37-.25-.44c-.47.15-.95.27-1.42.44a5.29,5.29,0,0,0-.82.42c-.39.22-1.09.43-1.11.68a3.58,3.58,0,0,0,.41,1.36c1-.57,1.73-.93,2.39-1.4A4.54,4.54,0,0,0,265.93,380.5Zm-27.65,6.38-.07.56a7.62,7.62,0,0,0,1.44.37,6.58,6.58,0,0,0,1.51-.23c.43-.09.85-.22,1.28-.33a9.38,9.38,0,0,0-.61-1.53,1.09,1.09,0,0,0-.82-.34c-.11,0-.37.44-.32.63a4.4,4.4,0,0,0,.65,1.05Zm-77.16-14.47.21.33,3.34-.64c.5-1.27.5-1.27-.57-1.75Zm163-88.37c-.84-.1-1.39-.15-1.93-.25s-1.18-.09-1,.76c.08.42.3,1.13.5,1.15a2.93,2.93,0,0,0,1.84-.33C323.86,285.09,324,284.36,324.08,284ZM197.85,386.38l2.92.76.15-.3-1.63-1.79-.68-.75a11.33,11.33,0,0,0-.65,1.18A3.62,3.62,0,0,0,197.85,386.38Zm-46.09-23.32a7.28,7.28,0,0,1-2.21-.7c-1.1-.83-1.89-.48-2.71.45a17.36,17.36,0,0,0,2.67.39,1,1,0,0,1,.59.21C150.77,364.29,151.11,363.58,151.76,363.06Zm28.31,15.69a1.42,1.42,0,0,0-.13,2.38c.37.2,1.09-.15,1.6-.37a1.76,1.76,0,0,0-.23-1.07A6.11,6.11,0,0,0,180.07,378.75Zm47-213v-.47c-.33-.29-.64-.78-1-.82-1.08-.12-2,.6-1.91,1.39.19,1.32,1.12.26,1.68.38C226.19,166.33,226.65,166,227.06,165.77Zm97.45,150.76a9.88,9.88,0,0,0-1.16-1,1.12,1.12,0,0,0-.88-.17,1.08,1.08,0,0,0-.64.7c0,.2.33.48.54.7a3.54,3.54,0,0,0,.52.42l.85.58ZM271.43,379l1.3-3.39c-1.79.69-2,2.07-2.41,3.34Zm-18-204.81c.11.57.16,1,.27,1.39.3,1.1.91,1.43,2,1a.88.88,0,0,0,.41-.59c0-.23-.06-.63-.22-.72C255.1,174.92,254.32,174.61,253.43,174.21ZM221.51,387.73h-2.82c.36,1.57,1.74,1.12,2.82,1.57Zm88.14-38.46a3.07,3.07,0,0,0,2.24-3.25c0-.14-.31-.29-.47-.44a1.92,1.92,0,0,1-1.11,2.08C310,347.82,309.91,348.58,309.65,349.27ZM246,385.3c-.38,1.15-2.23,1.62-1.57,3.3A3.2,3.2,0,0,0,246,385.3ZM138.72,352.24a3.18,3.18,0,0,0,1.92-3.3,6.36,6.36,0,0,0-1.22,1.21A10.53,10.53,0,0,0,138.72,352.24Zm175.56-87.17-2.49-.47-.25.86,2.57,1.4ZM186.46,384.41c-1.05-.82-2-.82-2.41,0-.47,1,.55,1.06.32.7Zm125.9-115.53-1.47-.15-.82-.06c.07.4,0,.93.24,1.17a1.21,1.21,0,0,0,1.13.25C311.8,269.92,312,269.41,312.36,268.88Zm7.33,63.6c1.11-.88,2.07-1.7,2.23-3.37-.49.17-.94.2-1,.39C320.45,330.43,320.11,331.4,319.69,332.48ZM316,274.26a8.15,8.15,0,0,0-1-1.35,8.68,8.68,0,0,0-1.5-.82c.31.64.85,1,1,1.52C314.72,274.75,315.36,274.45,316,274.26ZM262,179.59a4.75,4.75,0,0,0-1.41.46.9.9,0,0,0-.16.88c.28.27.93.6,1.08.48C262.09,181,262.69,180.39,262,179.59Zm-36.64,206.5-.37.06a9.35,9.35,0,0,0-.83,1.38c-.09.21.08.58.22.82a.64.64,0,0,0,.5.17,5,5,0,0,0,.84-1.38C225.83,386.85,225.52,386.45,225.39,386.09Zm10-219.47c.34.3.61.69,1,.79a1,1,0,0,0,.87-.44,4.14,4.14,0,0,0,.09-1.33,5,5,0,0,0-.88.29C236.13,166.1,235.84,166.33,235.41,166.62Zm88.12,155.27,1.56-1-1.27-1.39-.29.23Zm.17-28.74a12.13,12.13,0,0,0,.28-1.52,3.46,3.46,0,0,0-.13-1.2c0-.13-.43-.25-.61-.2s-.44.36-.41.47C323.09,291.54,323.42,292.37,323.7,293.15Zm-45.18,84-.5.08-.63,1.92,1.9-.4Zm28-116.12c.19-1.31-.4-2.06-1.35-2a.88.88,0,0,0-.56.31c-.06.08.06.4.18.49C305.32,260.26,305.87,260.6,306.54,261.05Zm-116,122.43c-1.4,1.28-1.49,1.6-.66,2.42C190.13,385.12,191.44,384.73,190.51,383.48Zm-55.66-90.86.18.32c.33-.23.82-.38.95-.69a6.37,6.37,0,0,0,.23-1.6H136C135.6,291.31,135.22,292,134.85,292.62Zm152.84,77-.52-.1c-.33.45-.65.91-1,1.37l.2.36c.43-.09,1.05,0,1.24-.3S287.69,370.07,287.69,369.62Zm17.23-14.75c-.77-.45-1.12.12-1.29.66a3.44,3.44,0,0,0,.15,1.28l.28-.1Zm-68.06,32.88-.38-.16c-.33.41-.69.81-1,1.25a.75.75,0,0,0,0,.62c.23.07.67.09.73,0A16.11,16.11,0,0,0,236.86,387.75Zm-66.64-12.41c-1.14,0-1.28.74-1.3,1.56C170.21,377.22,170.21,377.22,170.22,375.34Zm118.61-12.62c-.41,1-.81,1.94-1.19,2.83C288.89,364.59,289.3,363.61,288.83,362.72ZM259.3,383l-.37-.24-1.16,1.71C259.45,384.65,259,383.52,259.3,383Zm-62,3.17-.55-.09v0Z" transform="translate(0)"/><path class="cls-5" d="M307.44,362.07l1.35-5.94.32.29a8.79,8.79,0,0,1,1.54,0,.77.77,0,0,1,.47.6,8.9,8.9,0,0,1-.36,1.59,7.14,7.14,0,0,0-.47,1.9c.09,1.41-.3,1.69-1.6,1.74A9,9,0,0,1,307.44,362.07Z" transform="translate(0)"/><path class="cls-5" d="M316.25,348.9c.69-.46,1.15-.72,1.56-1s2.6,0,2.75.59a.79.79,0,0,1-.43.67,2.11,2.11,0,0,0-1.65,1.69,1.47,1.47,0,0,1-2.16,1c-.73-.27-1.18-.63-.6-1.5A5.46,5.46,0,0,0,316.25,348.9Z" transform="translate(0)"/><path class="cls-5" d="M182.29,389.39a1.73,1.73,0,0,1-2.44.41,24.52,24.52,0,0,1-3-2.49c-.2-.2-.26-.94-.14-1A1.77,1.77,0,0,1,178,386a9.65,9.65,0,0,1,2.4,1.36A18.12,18.12,0,0,1,182.29,389.39Z" transform="translate(0)"/><path class="cls-6" d="M288.17,209.17l-2.77.34-.06-.34-.6.93c-1.21-.91-.6-2-.53-3l2.78-1.31C287.61,206.87,286.8,208.16,288.17,209.17Z" transform="translate(0)"/><path class="cls-6" d="M287.22,227.09c0,1.21,0,2.43,0,3.64,0,.19-.48.53-.63.48-.47-.15-1.2-.38-1.29-.72a5.7,5.7,0,0,1,.75-4.61c.33-.52,1.2-.29,1.43.36a3.87,3.87,0,0,1,.06.84Z" transform="translate(0)"/><path class="cls-5" d="M280.86,200.46c-.45-.39-.67-.49-.66-.59.06-1.37-.45-2.1-1.95-1.87-.12,0-.47-.43-.43-.58.13-.47.31-1.2.62-1.28a4.65,4.65,0,0,1,2.37,0,1.43,1.43,0,0,1,.94,1.79C281.55,198.7,281.22,199.46,280.86,200.46Z" transform="translate(0)"/><path class="cls-5" d="M292.3,374.08c.11-1.45,1.42-1.51,2.74-1.65.09-.28.1-.68.31-.83a3.22,3.22,0,0,1,1.07-.36c.08.36.32.78.22,1.08a25.14,25.14,0,0,1-1.28,3.09,1,1,0,0,1-.87.27C293.8,375.26,293.17,374.73,292.3,374.08Z" transform="translate(0)"/><path class="cls-5" d="M285.68,220.17a10.41,10.41,0,0,1,2.68-.25,2,2,0,0,1,1.37,1.21,2.37,2.37,0,0,1-.77,1.81c-1,.88-2.26.28-2.81-1.2C286,221.24,285.84,220.71,285.68,220.17Z" transform="translate(0)"/><path class="cls-5" d="M311.75,353.25a1.48,1.48,0,0,1,0-.21l1.86-.71a.26.26,0,0,1,.12,0c.33.16.9.26,1,.5a13.38,13.38,0,0,1,.44,2.88c0,.15-.77.49-1.18.48a2.77,2.77,0,0,1-2.18-2.67l0,0,.22-.1Z" transform="translate(0)"/><path class="cls-6" d="M306.13,366.28a19.25,19.25,0,0,1-2.47,2.35c-.31.2-1.12-.23-1.64-.48a.83.83,0,0,1-.16-.8,16.14,16.14,0,0,1,1.63-1.57c.1-.1.29-.09.4-.18.33-.25.85-.8.9-.75A11.78,11.78,0,0,1,306.13,366.28Z" transform="translate(0)"/><path class="cls-5" d="M255.45,388.39c1-.32,2.1-.73,3.25-1,.58-.14,1.3-.19,1.39.77a1.2,1.2,0,0,1-1.06,1.42,5.92,5.92,0,0,0-1.55.59c-.91.56-1.29.4-1.49-.66A4.56,4.56,0,0,0,255.45,388.39Z" transform="translate(0)"/><path class="cls-6" d="M226.87,392.86l.64.49.43,1.17a10.91,10.91,0,0,0-1.52.86c-1,.87-1.4.86-2.14-.27a16.49,16.49,0,0,1-.83-1.68C224.79,393.28,226.09,394.3,226.87,392.86Z" transform="translate(0)"/><path class="cls-2" d="M161.48,377.19l.24-1.4c1.6,1,3,1.91,4.35,2.88.23.17.17.75.24,1.14a3.28,3.28,0,0,1-1.17-.16C164,378.92,162.84,378.11,161.48,377.19Z" transform="translate(0)"/><path class="cls-6" d="M273.52,189.82c.25-.58.6-1.42,1-2.23,0-.09.28-.16.41-.14.78.12,2.08,2.44,1.74,3.17a.85.85,0,0,1-.74.38C275.19,190.71,274.5,190.32,273.52,189.82Z" transform="translate(0)"/><path class="cls-3" d="M308.35,258l-.22-.63.54-.76a11.62,11.62,0,0,1-1.46-1.69c-.36-.64.13-1,.67-.72a5.7,5.7,0,0,1,2.06,1.26,2,2,0,0,1,.1,1.72c-.18.43-.64,1.14-1.44.64C308.57,257.81,308.44,257.94,308.35,258Z" transform="translate(0)"/><path class="cls-5" d="M268.68,384.12a13.93,13.93,0,0,0,.29,1.66,1.27,1.27,0,0,1-1.05,1.62c-.61,0-1.23,0-1.64,0a18.17,18.17,0,0,1,.66-2.83C267.36,383.57,268.2,384.06,268.68,384.12Z" transform="translate(0)"/><path class="cls-2" d="M288.68,376.55c.11.53.47,1.32.26,1.54a6.59,6.59,0,0,1-1.88,1l-.28-.31-.08,1.31c-1.07.49-1.4-.43-2.17-1.33l2.7-.72c.32-.37.09-1.7,1.48-1.45Z" transform="translate(0)"/><path class="cls-2" d="M199,390.86c.18.35.43.61.43.88,0,1.19.72,1.26,1.61,1.11.46-.07,1.11-.52,1.19.32,0,.33-.57,1-.84,1a5,5,0,0,1-2.24-.65,1.78,1.78,0,0,1-.72-2.19C198.46,391.18,198.71,391.07,199,390.86Z" transform="translate(0)"/><path class="cls-6" d="M271.69,383.53l1.78.13c-.3.67-.77,1.22-.71,1.72s.19,1.07-.51,1.26c-.32.09-1,.13-1,0a4.91,4.91,0,0,1-.35-1.9c0-.45.52-.85.8-1.27Z" transform="translate(0)"/><path class="cls-2" d="M167.75,382.14c.8,0,.8,0,2.14,1.89l1.2-.7c0,.61.13,1.1-.05,1.41s-.69.2-1.06.17a3.65,3.65,0,0,1-1.25-.31C167.4,384,167.3,383.71,167.75,382.14Z" transform="translate(0)"/><path class="cls-2" d="M239,391.43l.31-.48c0,.08,0,.21.07.22.53.09,1.36,0,1.51.28a10.72,10.72,0,0,1,.57,2.6,7.7,7.7,0,0,1-2.24-.49c-.71-.42-.42-1.22-.21-1.89h0l.18,0Z" transform="translate(0)"/><path class="cls-3" d="M322.91,280.81h0c-.28-.89-.56-1.79-.85-2.68h0a2.25,2.25,0,0,0,.58,0c.61-.17,1.4-.69,1.12.65a.16.16,0,0,0,0,.12C325,280.24,323.77,280.44,322.91,280.81Z" transform="translate(0)"/><path class="cls-2" d="M326.37,331.52a5.08,5.08,0,0,1,0,1.37c-.11.36-.39.84-.69.93s-.82-.14-1.2-.3c-.08,0-.05-.43,0-.63.13-.42.31-.82.52-1.37Z" transform="translate(0)"/><path class="cls-2" d="M270,184.56h-1.36c-.86-1,.12-1.78.41-2.62a2.18,2.18,0,0,1,.91.12C270,182.86,270,183.67,270,184.56Z" transform="translate(0)"/><path class="cls-2" d="M278.05,193.55l.1-1.5a11.3,11.3,0,0,1,1.63.56,1.39,1.39,0,0,1,.68.79,1,1,0,0,1-.39.85c-.23.1-.62-.11-.93-.22S278.46,193.73,278.05,193.55Z" transform="translate(0)"/><path class="cls-3" d="M329.48,296.15c-.38.46-.61.93-1,1.13a1.46,1.46,0,0,1-1-.15,4.3,4.3,0,0,1,.19-1.75,1.07,1.07,0,0,1,1-.38C329,295.15,329.13,295.64,329.48,296.15Z" transform="translate(0)"/><path class="cls-6" d="M319.88,272.79l0-.06c.17-1.2,1-.38,1.58-.49a1.52,1.52,0,0,1,.51,1,4.09,4.09,0,0,1-.73,1.29,6.24,6.24,0,0,1-.74-.71A12.22,12.22,0,0,1,319.88,272.79Z" transform="translate(0)"/><path class="cls-2" d="M253.21,389c.7.76,1.56,1.5.19,2.28a1.4,1.4,0,0,1-1.18-.15C252,390.27,252.08,389.4,253.21,389Z" transform="translate(0)"/><path class="cls-2" d="M317.73,268h0l-.25-.63,0,0a4,4,0,0,1-.35-.46,3.86,3.86,0,0,1-.46-1c0-.13.39-.49.51-.46a5.48,5.48,0,0,1,1.17.62c.09.06,0,.31.09.45C319.06,267.72,319,267.79,317.73,268Z" transform="translate(0)"/><path class="cls-2" d="M248.18,390.47a6.13,6.13,0,0,1,1.57.88c.23.24.1.84.13,1.27-.51,0-1.31.23-1.46,0a7,7,0,0,1-.65-2Z" transform="translate(0)"/><path class="cls-3" d="M263.54,389.49l-2.63.37c.15-.69.19-1.59.38-1.62A1.87,1.87,0,0,1,263.54,389.49Z" transform="translate(0)"/><path class="cls-6" d="M264.47,176.19c.67.22,1.63.12,1.6,1.2,0,.25-.62.49-.95.74l-1-1.71Z" transform="translate(0)"/><path class="cls-3" d="M294.86,245.27a6.81,6.81,0,0,1-1.37.75c-.16,0-.62-.37-.6-.43.23-.51.53-1,.81-1.48Z" transform="translate(0)"/><path class="cls-3" d="M328.09,320c-.31-.33-.68-.59-.63-.7a11.35,11.35,0,0,1,.76-1.52,4.82,4.82,0,0,1,.74,1.29C329,319.27,328.48,319.6,328.09,320Z" transform="translate(0)"/><path class="cls-2" d="M280.49,382.28a1.32,1.32,0,0,1,1.67-1.09c.13,0,.3.58.21.76C281.94,382.83,281.29,382.88,280.49,382.28Z" transform="translate(0)"/><path class="cls-6" d="M271.71,383.51l-.15-.06.13.08Z" transform="translate(0)"/><path class="cls-7" d="M245.75,264.87c.47-1.66-.44-2.54-1.81-3.08-1.17-.47-.84-1.43-.78-2.25.09-1.26-.27-1.81-1.54-1.76-2.87.09-5.1,1.55-7.12,3.44-.36.33-.75.62-1.17,1-.28-.68-.49-1.17-.69-1.67-1.1-2.76-3.25-3.31-5.74-1.54a13.67,13.67,0,0,1-2.83,1.44c.23-1.78,1.28-3.46.05-5.1a28.21,28.21,0,0,0-2.12-2.26l-.39.18c-.11.64-.26,1.28-.32,1.93a4.18,4.18,0,0,1-4.18,3.79,3.57,3.57,0,0,1-3-2.32c-.45-.93-.85-1.87-1.33-2.78a4.29,4.29,0,0,0-5.15-2,18.68,18.68,0,0,0-2.93.85,7.9,7.9,0,0,0-4.3,5.93,5.37,5.37,0,0,1-.38,1.13c-.73,1.68-1.58,2-3.21,1.17a27.93,27.93,0,0,0-3.22-1.54,4.39,4.39,0,0,0-4.74,1.35,3,3,0,0,0-.89,3.57,3,3,0,0,0,.59,1c2,1.71,1.94,4,1.78,6.29-.27,3.87,2.08,6.51,6,6.51l.6,0a6.06,6.06,0,0,1-5.8-1.78c-1.74-1.63-1.88-3.5-1.56-5.56a6.25,6.25,0,0,0-1.35-5c-2-2.4-1.84-4.51.57-6.4a5.25,5.25,0,0,1,6.38-.33c.48.28,1,.42,1.53.67,1.72.86,2.59.44,2.8-1.53a8.83,8.83,0,0,1,7.2-7.33,13.17,13.17,0,0,1,3.18-.19c2.24.32,3.31,2,4.17,3.94a6.41,6.41,0,0,0,1.62,2.63,2.91,2.91,0,0,0,4.46-1.5,11.52,11.52,0,0,0,.51-2.18c.11-.54.15-1.08.22-1.62,2.65.47,3.93,1.86,4.14,4.33.06.71.17,1.42.28,2.33.44-.25.8-.44,1.14-.66,1.46-.95,3.09-1.54,4.73-.81a3.87,3.87,0,0,1,2.23,3.51c1.21-.89,2.35-1.81,3.56-2.61a8,8,0,0,1,5.48-1.21,1.77,1.77,0,0,1,1.38,2.26c-.38,1-.12,1.48.87,1.9a3.19,3.19,0,0,1,1.61,3.59C246.16,264.71,245.9,264.77,245.75,264.87Z" transform="translate(0)"/><path class="cls-7" d="M232.32,293.24c1.2-2.24-.08-3.58-1.93-5.08-3-2.45-7.08,1.29-7.2,3.9-.1,2.24.75,3.18,3.15,3.39-2.33.49-3.83-.86-4.07-3.15-.32-3.05,3.4-6.46,6-6a5.54,5.54,0,0,1,3.62,2.09,4.87,4.87,0,0,1,1.34,3.49C233.17,292.37,232.63,292.8,232.32,293.24Z" transform="translate(0)"/><path class="cls-7" d="M218.9,248a23.68,23.68,0,0,0,.67-3.18,1.92,1.92,0,0,0-1.63-2.17c-.81-.19-1.59-.53-2.41-.69a2.23,2.23,0,0,0-1.18.21c-3.32,1.45-3.48,3.88-1.71,6.63.36.56.75,1.09,1.13,1.64-2.29-.76-3.81-4.48-2.85-6.91a4.69,4.69,0,0,1,5.41-2.38c.3.11.6.22.91.3,2.28.56,2.44.64,2.66,3C220,245.64,220.17,247,218.9,248Z" transform="translate(0)"/><path class="cls-7" d="M198.5,289.21c.71-1.9,0-3.43-2.07-4.07a4.91,4.91,0,0,0-2.51-.31c-1.77.47-2.41,3.22-1.28,4.86l.51.78a1.91,1.91,0,0,1-1.73-1.67,12.09,12.09,0,0,1,0-3.18c.19-1.22,1.45-1.95,2.94-1.94a5.31,5.31,0,0,1,4.71,2.63A2.15,2.15,0,0,1,198.5,289.21Z" transform="translate(0)"/><path class="cls-7" d="M231.16,248.45a3.83,3.83,0,0,0-3.84-1.62c-1.75.41-2.67,1.4-2.65,2.87a2.55,2.55,0,0,0,2.52,2.34,5.31,5.31,0,0,1,1.54.46,11.92,11.92,0,0,1-2.76-.24,3.05,3.05,0,0,1-1.65-1.34,3.44,3.44,0,0,1,3.41-5.14,9.88,9.88,0,0,1,2.87.7C231.66,246.89,231.81,247.61,231.16,248.45Z" transform="translate(0)"/><path class="cls-7" d="M212.41,282.72c.37,0,1,0,1.07.13a12.77,12.77,0,0,1,1,3c.06.37-.47,1-.88,1.27-.87.61-1.59,1.26-1.39,2.41a2.2,2.2,0,0,0,2.21,1.94c.06,0,.11.1.17.16-1.12-.14-2.31,0-2.92-1.36a3.1,3.1,0,0,1,.83-3.85A2.22,2.22,0,0,0,212.41,282.72Z" transform="translate(0)"/><path class="cls-7" d="M181.31,278.15c0-1.41,1-2.18,2.76-2.15,1.4,0,2.15.66,2.13,1.83,0,1.64-.93,2.88-2.12,2.87A2.78,2.78,0,0,1,181.31,278.15Zm.85.51c0,1,.85,1.58,2.24,1.64.55,0,1.29-1.07,1.29-1.9a1.46,1.46,0,0,0-1.58-1.43A1.85,1.85,0,0,0,182.16,278.66Z" transform="translate(0)"/><path class="cls-7" d="M200.58,274.16c1.43,0,2.21.69,2.19,2a13.72,13.72,0,0,1-.42,2.91,7.85,7.85,0,0,0,.42,5.08c-1.43-.82-2-2.44-1.49-4.6.24-1.12.55-2.22.72-3.34S201.23,274.74,200.58,274.16Z" transform="translate(0)"/><path class="cls-8" d="M325.14,309.53c-.49-.27-.79-.46-1.11-.6s-.65-.26-1-.41c.44-.93.9-1.79,2.05-2,.15,0,.26-.23.4-.34l.81-.61a11.61,11.61,0,0,1,.93,1.39c0,.07-.51.4-.76.64a7.68,7.68,0,0,0-.84,1A6.65,6.65,0,0,0,325.14,309.53Z" transform="translate(0)"/><path class="cls-7" d="M196.09,255.84c-.33,0-.94,0-1-.05-.33-1.49-2.28-1.08-2.71-2.42,1.49-2.07,2.66-2.43,4.44-1.34.91.55,1.07,1.67.44,2.9a7.61,7.61,0,0,0-.33-1.37,1.68,1.68,0,0,0-2.27-.94,3.59,3.59,0,0,0-.95,1.26s.35.48.54.47c.76,0,1.05.36,1.16,1.07C195.48,255.59,195.87,255.7,196.09,255.84Z" transform="translate(0)"/><path class="cls-8" d="M293.67,365.25c-.95,0-1.54-.68-1.61-1.74s.52-1.29,1.36-1.32c1,0,2.11.72,2.13,1.46S294.44,365.24,293.67,365.25Z" transform="translate(0)"/><path class="cls-8" d="M282,376.27a17.48,17.48,0,0,1,.5-2.87,2.78,2.78,0,0,1,1.16-1.27c.2-.12.79.12,1,.37s0,.64-.12,1a12,12,0,0,0-.45,1.6C284,376.09,283.5,376.37,282,376.27Z" transform="translate(0)"/><path class="cls-9" d="M147.92,356.23c1.42-.25,1.4,1.33,1.38,1.6-.11,1.27.84,1.56,1.61,2.12-.49.76-.91,1.1-1.62.24-.51-.63-1.17-1.15-1.71-1.76-.12-.13-.08-.45,0-.67C147.64,357.27,147.78,356.78,147.92,356.23Z" transform="translate(0)"/><path class="cls-8" d="M157.37,367.53a2,2,0,0,1-1.39-2.91c.22-.34,0-.93,0-1.47h1.07Z" transform="translate(0)"/><path class="cls-8" d="M302,356.76c-.46,1.46-.23,3.18-1.76,4.19-.12-.8-.16-1.51-.32-2.19C299.56,357.08,300.18,356.41,302,356.76Z" transform="translate(0)"/><path class="cls-9" d="M228.9,387.05c1.39,1.45,1,2.5.14,3.75a1,1,0,0,1-.63.37c-.1,0-.35-.32-.36-.5,0-.62-1-1.38.34-1.88C228.73,388.66,228.73,387.68,228.9,387.05Z" transform="translate(0)"/><path class="cls-9" d="M255.33,383.53c-1.25.65-2.35,1.2-3.42,1.8-.39.22-.7.59-1.08.85a2,2,0,0,1-.62.15c0-.21-.14-.51,0-.63a11.3,11.3,0,0,1,1.76-1.89c.33-.24,1,.07,1.48-.06a7.89,7.89,0,0,0,1.27-.74S254.91,383.19,255.33,383.53Z" transform="translate(0)"/><path class="cls-8" d="M170.88,379.13l3.05-.5.59,1.66c-.42.29-.42.29-3.64-.08Z" transform="translate(0)"/><path class="cls-7" d="M233.51,269.78c.82-.39,1,.26,1.22.77.39,1.12.69,2.27,1,3.4s.86,2.34,2.34,2.54c-1.8.11-2.75-.78-3.18-2.49C234.54,272.57,234,271.18,233.51,269.78Z" transform="translate(0)"/><path class="cls-9" d="M265.93,380.5a4.54,4.54,0,0,1-.8,1.06c-.66.47-1.41.83-2.39,1.4a3.58,3.58,0,0,1-.41-1.36c0-.25.72-.46,1.11-.68a5.29,5.29,0,0,1,.82-.42c.47-.17.95-.29,1.42-.44Z" transform="translate(0)"/><path class="cls-10" d="M238.28,386.88l3.06.18a4.4,4.4,0,0,1-.65-1.05c-.05-.19.21-.64.32-.63a1.09,1.09,0,0,1,.82.34,9.38,9.38,0,0,1,.61,1.53c-.43.11-.85.24-1.28.33a6.58,6.58,0,0,1-1.51.23,7.62,7.62,0,0,1-1.44-.37Z" transform="translate(0)"/><path class="cls-9" d="M161.12,372.41l3-2.06c1.07.48,1.07.48.57,1.75l-3.34.64Z" transform="translate(0)"/><path class="cls-8" d="M324.08,284c-.13.32-.22,1-.62,1.33a2.93,2.93,0,0,1-1.84.33c-.2,0-.42-.73-.5-1.15-.15-.85.4-.86,1-.76S323.24,283.94,324.08,284Z" transform="translate(0)"/><path class="cls-9" d="M197.85,386.38a3.62,3.62,0,0,1,.11-.9,11.33,11.33,0,0,1,.65-1.18l.68.75,1.63,1.79-.15.3Z" transform="translate(0)"/><path class="cls-9" d="M151.76,363.06c-.65.52-1,1.23-1.66.35a1,1,0,0,0-.59-.21,17.36,17.36,0,0,1-2.67-.39c.82-.93,1.61-1.28,2.71-.45A7.28,7.28,0,0,0,151.76,363.06Z" transform="translate(0)"/><path class="cls-9" d="M180.07,378.75a6.11,6.11,0,0,1,1.24.94,1.76,1.76,0,0,1,.23,1.07c-.51.22-1.23.57-1.6.37A1.42,1.42,0,0,1,180.07,378.75Z" transform="translate(0)"/><path class="cls-9" d="M227.06,165.77c-.41.18-.87.56-1.23.48-.56-.12-1.49.94-1.68-.38-.13-.79.83-1.51,1.91-1.39.36,0,.67.53,1,.82Z" transform="translate(0)"/><path class="cls-11" d="M324.51,316.53l-.77,1.19-.85-.58a3.54,3.54,0,0,1-.52-.42c-.21-.22-.57-.5-.54-.7a1.08,1.08,0,0,1,.64-.7,1.12,1.12,0,0,1,.88.17A9.88,9.88,0,0,1,324.51,316.53Z" transform="translate(0)"/><path class="cls-10" d="M271.43,379l-1.11,0c.37-1.27.62-2.65,2.41-3.34Z" transform="translate(0)"/><path class="cls-8" d="M253.43,174.21c.89.4,1.67.71,2.41,1.1.16.09.25.49.22.72a.88.88,0,0,1-.41.59c-1,.41-1.65.08-2-1C253.59,175.2,253.54,174.78,253.43,174.21Z" transform="translate(0)"/><path class="cls-11" d="M221.51,387.73v1.57c-1.08-.45-2.46,0-2.82-1.57Z" transform="translate(0)"/><path class="cls-11" d="M309.65,349.27c.26-.69.31-1.45.66-1.61a1.92,1.92,0,0,0,1.11-2.08c.16.15.47.3.47.44A3.07,3.07,0,0,1,309.65,349.27Z" transform="translate(0)"/><path class="cls-10" d="M246,385.3a3.2,3.2,0,0,1-1.57,3.3C243.76,386.92,245.61,386.45,246,385.3Z" transform="translate(0)"/><path class="cls-10" d="M138.72,352.24a10.53,10.53,0,0,1,.7-2.09,6.36,6.36,0,0,1,1.22-1.21A3.18,3.18,0,0,1,138.72,352.24Z" transform="translate(0)"/><path class="cls-8" d="M314.28,265.07l-.17,1.79-2.57-1.4.25-.86Z" transform="translate(0)"/><path class="cls-11" d="M186.46,384.41l-2.09.71c.23.36-.79.29-.32-.7C184.45,383.59,185.41,383.59,186.46,384.41Z" transform="translate(0)"/><path class="cls-11" d="M312.36,268.88c-.38.53-.56,1-.92,1.21a1.21,1.21,0,0,1-1.13-.25c-.23-.24-.17-.77-.24-1.17l.82.06Z" transform="translate(0)"/><path class="cls-9" d="M319.69,332.48c.42-1.08.76-2.05,1.19-3,.1-.19.55-.22,1-.39C321.76,330.78,320.8,331.6,319.69,332.48Z" transform="translate(0)"/><path class="cls-10" d="M316,274.26c-.59.19-1.23.49-1.54-.65-.14-.49-.68-.88-1-1.52a8.68,8.68,0,0,1,1.5.82A8.15,8.15,0,0,1,316,274.26Z" transform="translate(0)"/><path class="cls-9" d="M262,179.59c.66.8.06,1.38-.49,1.82-.15.12-.8-.21-1.08-.48a.9.9,0,0,1,.16-.88A4.75,4.75,0,0,1,262,179.59Z" transform="translate(0)"/><path class="cls-9" d="M225.39,386.09c.13.36.44.76.36,1.05a5,5,0,0,1-.84,1.38.64.64,0,0,1-.5-.17c-.14-.24-.31-.61-.22-.82a9.35,9.35,0,0,1,.83-1.38Z" transform="translate(0)"/><path class="cls-11" d="M235.41,166.62c.43-.29.72-.52,1-.69a5,5,0,0,1,.88-.29,4.14,4.14,0,0,1-.09,1.33,1,1,0,0,1-.87.44C236,167.31,235.75,166.92,235.41,166.62Z" transform="translate(0)"/><path class="cls-9" d="M323.53,321.89v-2.15l.29-.23,1.27,1.39Z" transform="translate(0)"/><path class="cls-11" d="M323.7,293.15c-.28-.78-.61-1.61-.87-2.45,0-.11.23-.43.41-.47s.57.07.61.2a3.46,3.46,0,0,1,.13,1.2A12.13,12.13,0,0,1,323.7,293.15Z" transform="translate(0)"/><path class="cls-11" d="M278.52,377.17l.77,1.6-1.9.4.63-1.92Z" transform="translate(0)"/><path class="cls-11" d="M306.54,261.05c-.67-.45-1.22-.79-1.73-1.18-.12-.09-.24-.41-.18-.49a.88.88,0,0,1,.56-.31C306.14,259,306.73,259.74,306.54,261.05Z" transform="translate(0)"/><path class="cls-9" d="M190.51,383.48c.93,1.25-.38,1.64-.66,2.42C189,385.08,189.11,384.76,190.51,383.48Z" transform="translate(0)"/><path class="cls-10" d="M134.85,292.62c.37-.66.75-1.31,1.12-2h.24a6.37,6.37,0,0,1-.23,1.6c-.13.31-.62.46-.95.69Z" transform="translate(0)"/><path class="cls-11" d="M287.69,369.62c0,.45.17,1-.05,1.33s-.81.21-1.24.3l-.2-.36c.32-.46.64-.92,1-1.37Z" transform="translate(0)"/><path class="cls-10" d="M304.92,354.87l-.86,1.84-.28.1a3.44,3.44,0,0,1-.15-1.28C303.8,355,304.15,354.42,304.92,354.87Z" transform="translate(0)"/><path class="cls-11" d="M236.86,387.75a16.11,16.11,0,0,1-.6,1.69c-.06.11-.5.09-.73,0a.75.75,0,0,1,0-.62c.29-.44.65-.84,1-1.25Z" transform="translate(0)"/><path class="cls-8" d="M170.22,375.34c0,1.88,0,1.88-1.3,1.56C168.94,376.08,169.08,375.37,170.22,375.34Z" transform="translate(0)"/><path class="cls-10" d="M288.83,362.72c.47.89.06,1.87-1.19,2.83C288,364.66,288.42,363.71,288.83,362.72Z" transform="translate(0)"/><path class="cls-10" d="M259.3,383c-.32.56.15,1.69-1.53,1.47l1.16-1.71Z" transform="translate(0)"/><path class="cls-12" d="M322.07,278.14c.29.89.57,1.79.85,2.68C320.94,280,320.84,279.69,322.07,278.14Z" transform="translate(0)"/><path class="cls-7" d="M202.76,284.19l3.4,1.39C204.82,285.61,203.5,285.62,202.76,284.19Z" transform="translate(0)"/><path class="cls-7" d="M193.14,290.47l2.71.17Z" transform="translate(0)"/><path class="cls-7" d="M198.75,274.35a1.23,1.23,0,0,1,1.86-.21Z" transform="translate(0)"/><path class="cls-9" d="M197.32,386.13l-.54-.12v0Z" transform="translate(0)"/><path class="cls-12" d="M217.64,392.43l-.27-.63.21-.09.27.53Z" transform="translate(0)"/><path class="cls-7" d="M214.28,250.62l.53.18Z" transform="translate(0)"/><path class="cls-7" d="M213.8,250.4l.48.23Z" transform="translate(0)"/><path class="cls-7" d="M226.33,295.46l.51-.24Z" transform="translate(0)"/><path class="cls-12" d="M317.51,267.35l.25.63Z" transform="translate(0)"/><path class="cls-12" d="M311.75,353.25l.22.18-.22.1a.89.89,0,0,1-.07-.19S311.73,353.28,311.75,353.25Z" transform="translate(0)"/><path class="cls-12" d="M239,391.43l.16.21-.18,0a.48.48,0,0,1-.05-.17S239,391.45,239,391.43Z" transform="translate(0)"/><path class="cls-13" d="M149.31,128a17.51,17.51,0,0,1-3,10.3,11.78,11.78,0,0,1-19,.83c-5.13-6.33-5.9-13.49-2.6-20.9a11.67,11.67,0,0,1,10.74-7.2c5.06-.24,8.6,2.25,11.07,6.43A20.59,20.59,0,0,1,149.31,128Z" transform="translate(0)"/><path class="cls-14" d="M78.51,85a21.8,21.8,0,0,1-1.28,3.73,4.2,4.2,0,0,1-7,.58,7.8,7.8,0,0,1-.82-8.34,4.37,4.37,0,0,1,4-2.39,4,4,0,0,1,3.73,2.39A32.81,32.81,0,0,1,78.51,85Z" transform="translate(0)"/><path class="cls-14" d="M124.83,90.3V84.82c1.66-.23,3.2-.28,4.25,1.25a3,3,0,0,1-.14,3.48C127.78,90.91,126.3,90.5,124.83,90.3Z" transform="translate(0)"/><path class="cls-14" d="M124.81,83.25V78.9c1.1-.27,2.16-.47,3,.5a2.07,2.07,0,0,1,.32,2.45C127.45,83.13,126.19,83.2,124.81,83.25Z" transform="translate(0)"/><path class="cls-15" d="M99.54,84.82H95.89l1.83-5.57C98.39,81.29,98.94,83,99.54,84.82Z" transform="translate(0)"/><path class="cls-16" d="M182.16,278.66a1.85,1.85,0,0,1,2-1.69,1.46,1.46,0,0,1,1.58,1.43" transform="translate(0)"/></svg>