<?xml version="1.0" encoding="utf-8"?>
<!-- Generator: Adobe Illustrator 22.1.0, SVG Export Plug-In . SVG Version: 6.00 Build 0)  -->
<svg version="1.1" id="Layer_1" xmlns="http://www.w3.org/2000/svg" xmlns:xlink="http://www.w3.org/1999/xlink" x="0px" y="0px"
	 viewBox="0 0 300 350" style="enable-background:new 0 0 300 350;" xml:space="preserve">
<g id="Layer_x0020_1">
	<g id="_76799096">
		<path id="_76397856" d="M91.9,153.6v-0.1c0,0,0,0,0-0.1V153.6L91.9,153.6z M241.2,147c-3.2-2.4-7.1-5.2-8.4-6.8
			c0.7-1.4,2.5-4,4-6.1c7.6-11.1,21.7-31.6,21.7-61.1c0-33.7-24.6-73-94-73c-32.8,0-70,10.8-102,29.8c-28.7,17-47.3,36.8-47.3,50.4
			c0,3.3,1.3,6.2,3.6,8.6c9,9,34.1,8.8,63.1,8.8c43.1,0,60.9,2.4,60.9,9.2c0,8.3-50.9,28.8-50.9,46.7c0,20.7,42.7,24.5,62,28
			c18.2,3.3,20.1,13.1,20.1,19.9c0,12.6-4.7,23.9-13.1,31.6c-8,7.3-17.9,12-32.4,11.3c4.6-33.2-18.9-55.7-53.2-55.7
			c-38.7,0-61.9,32.1-61.9,63.1c0,48.9,45.1,98.4,131.4,98.4c34.1,0,68.7-11.3,94.7-30.9c21.5-16.2,47.2-45.8,47.2-94.3
			C286.7,180.5,257.1,158.7,241.2,147L241.2,147z M101.8,153.5L101.8,153.5c0.1-5.4,15-14.9,24.8-21.2c14.5-9.3,25.9-16.6,25.9-25.5
			c0-3.6-1.4-6.9-4-9.5c-9.8-9.8-37.5-9.7-66.8-9.6c-10.7,0-22,0.4-32.8-0.6c11-3.6,24.3-10.8,39.1-18.7
			c21.6-11.5,45.7-24.4,68.3-29.6c-6,6-9.9,13.2-9.9,19.1c0,2.4,1.5,5,5.6,5c3.6,0,7.9-1.4,12.9-3c13.1-4.3,30.6-10,50.2,4.5
			c-6.7,0-12.3,1.8-15.4,4.3c-3,2.3-3.7,4.9-3.7,6.6c0,2.7,2,5,4.9,8.2c4.4,5,10.5,11.8,10.5,22.7c0,9-3.8,18.4-9.3,25
			c0.8-5.9-0.2-14.5-3.7-18.5c-1.6-1.9-3.8-2.8-6.2-2.8c-4,0-7.9,3.2-13.7,8.1c-4.1,3.4-9.3,7.7-15.8,11.9
			c-19.3,12.4-41.3,25.2-57.4,25.2C104.3,155,101.8,154.7,101.8,153.5L101.8,153.5z M125.8,253.5c17.1,0.9,31-3.7,41.6-13.4
			c10.4-9.5,16.3-23.6,16.3-38.9c0-8.6-3-14.8-9.8-20.2c25.2,5.2,52.3,18.1,66.3,38.3c-7.2-2.5-11.8-3.2-16.5-3.2
			c-3.6,0-6.9,4-6.9,8.8c0,2.4,1,5.4,2.2,9.2c3.8,11.7,9.9,30.5-5.9,54.3c0.3-9.8-2.2-17.7-5.3-21.6c-2.2-2.7-4.4-3.3-5.9-3.3
			c-4.9,0-7.5,4.6-11,11.1c-6.4,11.6-16.9,30.5-49.8,39.7c4.7-7.2,6.3-14.9,4.6-19.1c-0.8-2.1-2.6-3.3-4.6-3.3h-0.1
			c-3.2,0.1-7.1,1.3-11.7,2.5c-14.9,4.2-36.8,10.3-59.4-7.9c4.6-0.4,8.6-1.8,11.3-4.1c1.9-1.7,3-3.7,3-5.8c0-3.1-2.6-5.5-5.8-8.5
			c-6.5-6-15-13.9-8.2-30.4c0.9,3.6,2.6,6.8,4.9,9.4c2.7,3,6,4.8,9.1,4.8c6.7,0,6.7-5.7,6.7-9.4c0-4.9,4.5-9.3,9.6-9.3
			c14.6,0,20,21.5,15.2,33.2C120.7,262.7,124.4,257.2,125.8,253.5L125.8,253.5z M233.5,311.2c-24.4,18.4-56.7,28.9-88.8,28.9
			c-79.8,0-121.6-44.6-121.6-88.5c0-26.2,19.5-53.4,52.1-53.4c19.2,0,49.2,9.5,45.4,46.9c-0.6-3.8-5.5-17.1-20-17.1
			c-8.1,0-15,6.7-15,14.6c0,3.2-0.8,4.1-1.4,4.1c-5.4,0-12.1-7.9-10.7-21.2c-20.9,23.3-6,39.9,1.3,46.6c1.6,1.5,4.1,3.8,4.1,4.6
			c0,2.3-6,6.1-21,4.7c26.2,31.2,56.7,22.8,72.9,18.2c4-1.1,8.9-3.2,10.1-1.3c2.1,2.9-3.6,16.3-11.3,23.3
			c44.2-5.8,58.7-31.1,66-44.4c2.5-4.5,4.6-8.3,6.4-8.3c4.6,0,8.7,18.8,5.6,33.2c29.3-27.3,20.9-56.5,16.6-69.6
			c-1-3.2-1.9-6-1.9-7.6c0-2.4,0.8-3.1,2.4-3.5c7.3,0,15.9,2.6,26,7.5c-27.1-63.4-120.7-54.7-143.5-68.7
			c17.2-0.9,39.1-13.6,58.3-25.9c6.8-4.4,12.1-8.8,16.3-12.3c4.4-3.7,8.3-6.9,10.3-6.9c5.7,0,6.5,16.7,3.6,27
			c14.2-9.2,20.9-23,20.9-36c0-12.9-7.1-20.9-11.8-26.2c-1.5-1.7-3.5-3.9-3.5-4.7c0-0.7,0.5-1.6,1.6-2.4c4.9-3.6,14.5-4.9,24.5-2.7
			c-22-28.2-49.3-20.2-64.2-15.3c-4.5,1.5-11.2,3.6-11.2,1.7c0-5.3,7-16.2,19.6-23.8c-25.6-1.7-60.7,17.5-86,31
			C64.9,74.9,45.4,85.2,34.3,85.2c-6.9,0-9.3-2.5-9.3-5C24.9,61,92.8,9.8,164.5,9.8c27.2,0,49.3,6.7,64.2,19.4
			c12.9,11,20,26.5,20,43.8c0,26.4-12.5,44.6-20,55.5c-3.8,5.6-5.9,8.7-5.9,12c0,5.1,4.8,8.6,12.7,14.5
			c15.5,11.5,41.5,30.6,41.5,69.8C276.8,269.2,253.3,296.3,233.5,311.2L233.5,311.2z"/>
	</g>
</g>
</svg>
