<svg xmlns="http://www.w3.org/2000/svg" viewBox="0 0 60 43"><defs><style>.cls-1{fill:#fff;}</style></defs><title>Asset 1</title><g id="Layer_2" data-name="Layer 2"><g id="Layer_1-2" data-name="Layer 1"><polygon class="cls-1" points="0 12.13 30 12.13 30 21 11.63 21 19.5 25.25 19.5 23 29.13 23 29.13 43 3.88 29.5 0 12.13"/><polygon class="cls-1" points="30 10 19.75 0 0 0 0 10 30 10"/><polygon class="cls-1" points="60 12.13 30 12.13 30 21 48.38 21 40.5 25.25 40.5 23 30.88 23 30.88 43 56.13 29.5 60 12.13"/><polygon class="cls-1" points="30 10 40.25 0 60 0 60 10 30 10"/></g></g></svg>